<?xml version="1.0" encoding="UTF-8" standalone="no"?>
<!-- Created with Inkscape (http://www.inkscape.org/) -->

<svg
   width="497.62274mm"
   height="283.01825mm"
   viewBox="0 0 497.62274 283.01825"
   version="1.1"
   id="svg1"
   xml:space="preserve"
   xmlns:inkscape="http://www.inkscape.org/namespaces/inkscape"
   xmlns:sodipodi="http://sodipodi.sourceforge.net/DTD/sodipodi-0.dtd"
   xmlns="http://www.w3.org/2000/svg"
   xmlns:svg="http://www.w3.org/2000/svg"><sodipodi:namedview
     id="namedview1"
     pagecolor="#ffffff"
     bordercolor="#000000"
     borderopacity="0.25"
     inkscape:showpageshadow="2"
     inkscape:pageopacity="0.0"
     inkscape:pagecheckerboard="0"
     inkscape:deskcolor="#d1d1d1"
     inkscape:document-units="mm"><inkscape:page
       x="0"
       y="0"
       width="497.62274"
       height="283.01825"
       id="page2"
       margin="0"
       bleed="0" /></sodipodi:namedview><defs
     id="defs1" /><g
     inkscape:label="Calque 1"
     inkscape:groupmode="layer"
     id="layer1"
     transform="translate(120.03861,-989.38655)"><path
       style="fill:#ffffff;fill-opacity:1"
       d="M 100.29805,1257.5761 V 1242.747 H 16.518668 -67.260726 l -0.09334,0.3252 -0.09334,0.3252 -0.281056,5.3344 -0.281056,5.3343 -0.402726,2.9907 -0.402725,2.9908 -0.661001,3.9024 -0.661,3.9024 -0.442082,2.0813 -0.442081,2.0812 -6.501761,-0.023 -6.501761,-0.023 -3.512147,-0.4579 -3.512148,-0.458 -1.560954,-0.5303 -1.560955,-0.5303 -1.300795,-0.6504 -1.3008,-0.6503 -1.86998,-1.4057 -1.869976,-1.4058 -1.30475,-1.4276 -1.30474,-1.4276 -4.2398,-0.5218 -4.23981,-0.5218 -4.15315,-0.5235 -4.15316,-0.5235 -0.0654,-0.065 -0.0654,-0.065 0.65428,-1.6198 0.65427,-1.6199 0.529,-2.4 0.529,-2.4 -0.18033,-11.7072 -0.18033,-11.7072 0.43283,-3.1219 0.43283,-3.1219 0.3945,-1.5387 0.39451,-1.5388 0.77963,-1.599 0.77964,-1.599 1.4147,-1.5882 1.4147,-1.5881 -0.97681,-0.5987 -0.97681,-0.5987 -1.00099,-0.9192 -1.00099,-0.9192 -0.8567,-1.1707 -0.85669,-1.1707 -0.66762,-1.5915 -0.66762,-1.5914 -0.26668,-1.656 -0.26669,-1.656 0.32048,-0.3114 0.32048,-0.3114 2.47151,-0.9412 2.47151,-0.9413 2.60159,-0.9311 2.60159,-0.9312 0.84931,-0.6336 0.84931,-0.6336 0.63439,-1.2519 0.63439,-1.2519 0.27237,-2.1723 0.27238,-2.1722 v -2.3917 -2.3918 l 0.49485,-1.1544 0.49487,-1.1545 2.26788,-1.3649 2.267876,-1.3649 1.79448,-0.9117 1.794473,-0.9116 0.385803,-0.5508 0.385803,-0.5508 -0.0025,-0.6576 -0.0025,-0.6575 -0.653322,-1.4035 -0.653317,-1.4035 -0.87217,-1.1981 -0.87216,-1.1981 -0.19288,-0.6243 -0.19288,-0.6242 1.00547,0.2241 1.00547,0.2242 2.731668,0.01 2.73167,0.01 1.430875,-0.6726 1.430875,-0.6726 2.341431,-1.8895 2.341432,-1.8894 2.081273,-1.8906 2.081272,-1.8906 0.816904,-0.6846 0.816904,-0.6845 1.524528,-0.751 1.524528,-0.751 0.808764,-0.1731 0.808765,-0.1731 1.051059,0.4205 1.051058,0.4206 1.132006,1.2229 1.132006,1.223 0.876733,1.2827 0.876732,1.2828 -0.434662,4.826 -0.434662,4.8261 -0.22478,6.0811 -0.22478,6.0811 0.223397,7.7074 0.223398,7.7073 0.174611,4.6178 0.174611,4.6178 H 16.296608 100.29805 V 1099.4166 989.38654 l 2.27639,0.0478 2.27639,0.0478 0.0654,109.98226 0.0653,109.9823 h 12.87757 12.87757 v -0.9705 -0.9705 l 0.38699,-7.6798 0.38699,-7.6798 0.53018,-10.5365 0.53018,-10.5364 0.37638,-7.4145 0.37639,-7.4146 0.14076,-1.691 0.14076,-1.691 0.38754,-9.3658 0.38754,-9.3657 0.38749,-12.2275 0.3875,-12.2275 0.002,-10.929 0.002,-10.929 -0.39279,-7.9325 -0.39279,-7.9325 -0.38367,-4.6829 -0.38366,-4.6829 -0.42778,-4.3208 -0.42778,-4.3208 2.40287,-9.7928 2.40286,-9.7928 0.1672,0.01 0.16721,0.01 4.68286,3.6238 4.68286,3.6239 0.70927,-0.8187 0.70926,-0.8186 0.57588,-1.188 0.57589,-1.1879 0.17136,-6.504 0.17136,-6.504 0.44894,-1.691 0.44893,-1.691 0.65391,-1.1259 0.6539,-1.1259 1.19885,-0.7603 1.19885,-0.7602 h 0.32237 0.32237 l 0.68369,-0.26 0.68369,-0.2599 -0.7114,-1.3071 -0.7114,-1.3071 -0.89568,-0.9222 -0.89568,-0.9223 -0.63756,-0.2424 -0.63757,-0.2424 h -1.53492 -1.53493 l -1.24485,0.4172 -1.24485,0.4172 -3.38206,1.6497 -3.38207,1.6496 -1.01224,0.4067 -1.01223,0.4067 -1.39424,0.1639 -1.39423,0.1638 v -13.6946 -13.6942 h 13.28979 13.28979 l -0.0867,0.24613 -0.0867,0.24614 -3.38207,2.75422 -3.38206,2.75423 -2.39003,1.87762 -2.39002,1.87762 -0.0165,0.13596 -0.0164,0.13596 0.84552,0.45562 0.84552,0.4556 2.414,2.4149 2.414,2.4149 1.47826,0.8959 1.47827,0.8959 h 1.83123 1.83124 l 0.65039,-0.1884 0.6504,-0.1884 0.67451,-0.592 0.6745,-0.5921 0.66941,-1.0658 0.6694,-1.0658 0.17418,-1.2756 0.17417,-1.2757 0.5148,-3.12189 0.5148,-3.12191 0.4049,-1.23996 0.40491,-1.23996 0.74403,-1.0271 0.74403,-1.0271 0.82514,-0.4267 0.82514,-0.42669 1.77681,0.1004 1.7768,0.1004 0.32998,0.32997 0.32997,0.32997 -0.0105,4.0845 -0.0105,4.0845 -0.72011,3.38207 -0.7201,3.3821 -0.6157,2.3414 -0.6157,2.3414 -0.70518,3.5122 -0.70518,3.5121 -0.0139,2.7317 -0.0139,2.7317 0.61496,2.0418 0.61497,2.0419 0.3787,0.1453 0.3787,0.1453 0.82955,-0.4467 0.82955,-0.4468 1.15272,-1.5507 1.15271,-1.5508 1.23576,-0.5784 1.23575,-0.5784 0.003,-1.3023 0.003,-1.3023 -0.30633,-2.475 -0.30632,-2.4749 0.181,-0.7212 0.18101,-0.7212 0.70817,-0.2775 0.70817,-0.2774 0.75762,-0.038 0.75763,-0.038 0.34426,1.3008 0.34426,1.3008 0.41782,2.2113 0.41782,2.2114 0.2471,1.3008 0.24709,1.3008 0.22459,2.9918 0.22459,2.9918 -0.22357,3.7939 -0.22358,3.7938 -0.50661,2.3199 -0.50661,2.3199 -0.54051,1.537 -0.5405,1.5369 -1.06935,1.8 -1.06934,1.8 0.0885,0.08 0.0885,0.08 4.55278,2.3537 4.55279,2.3538 0.0787,1.6269 0.0787,1.6269 -0.39783,3.4477 -0.39783,3.4477 -1.5857,6.7154 -1.58569,6.7155 -0.89189,5.3331 -0.89188,5.3331 v 3.6492 3.6492 l 0.27056,2.2045 0.27056,2.2045 0.66519,2.2114 0.66518,2.2113 0.9224,1.6911 0.9224,1.691 1.11714,1.561 1.11715,1.5609 1.01742,1.1488 1.01742,1.1487 2.65517,-1.9801 2.65517,-1.9802 6.55519,-4.0918 6.55519,-4.0919 0.13008,-0.1498 0.13008,-0.1499 1.3008,-0.8961 1.30079,-0.8962 2.34144,-1.8707 2.34143,-1.8708 2.11176,-2.0734 2.11176,-2.0734 1.43896,-1.9238 1.43895,-1.9239 1.14106,-2.0812 1.14105,-2.0813 0.34785,-0.8455 0.34786,-0.8455 h 0.22859 0.2286 l 0.002,0.5853 0.002,0.5854 0.79031,1.3781 0.79031,1.3781 1.05405,1.0541 1.05406,1.054 1.73038,0.8117 1.73038,0.8117 1.82385,-0.014 1.82384,-0.014 0.55653,-0.2978 0.55654,-0.2979 0.41633,-1.2219 0.41633,-1.2218 v -0.8575 -0.8574 l -0.75764,-1.8929 -0.75765,-1.893 -1.35537,-2.8617 -1.35538,-2.8618 -0.35659,-1.0029 -0.35659,-1.0029 0.14933,-0.6881 0.14932,-0.6881 0.28842,-0.7805 0.28842,-0.7805 2.73061,-3.9024 2.73061,-3.9024 2.0864,-2.7316 2.08639,-2.7317 1.42419,-1.691 1.42419,-1.6911 2.61985,-2.6047 2.61985,-2.6047 1.95119,-1.57 1.95119,-1.5701 2.05741,-1.3877 2.0574,-1.3877 2.75554,-1.3672 2.75554,-1.3671 1.86352,-0.6663 1.86353,-0.6663 2.7675,-0.534 2.76751,-0.5341 h 1.7097 1.70971 l 3.15507,-2.3972 3.15507,-2.3973 0.34378,-0.3344 0.34378,-0.3344 0.17654,-0.01 0.17654,-0.01 1.00432,-0.9046 1.00432,-0.9045 h 0.23144 0.23143 v 0.2199 0.2198 l -0.52032,0.4709 -0.52032,0.4709 v 0.3407 0.3408 l 0.58536,0.3004 0.58536,0.3005 1.20347,0.9978 1.20347,0.9977 1.16823,-1.0939 1.16823,-1.094 0.7027,-1.2235 0.7027,-1.2234 0.14864,-1.4403 0.14865,-1.4402 -0.59094,-1.759 -0.59094,-1.759 -1.30453,-1.9512 -1.30452,-1.9512 -0.84093,-1.0406 -0.84094,-1.0406 -0.55168,-1.0954 -0.55169,-1.0953 v -0.3641 -0.3642 l 1.80862,-2.7031 1.80862,-2.703 2.15881,-2.2118 2.1588,-2.2117 2.58186,-1.9272 2.58186,-1.92719 2.88148,-1.47906 2.88148,-1.47905 1.95119,-0.6877 1.9512,-0.68769 2.73167,-0.63219 2.73167,-0.6322 2.79632,-0.31935 2.79631,-0.31935 3.83774,0.15723 3.83774,0.15723 2.24205,0.51213 2.24205,0.51214 2.26222,0.69002 2.26222,0.69002 0.87931,1.37457 0.8793,1.37458 0.79644,0.67016 0.79644,0.67016 1.19394,0.17904 1.19393,0.17904 1.73162,-0.13295 1.73162,-0.13296 2.41723,-0.8131 2.41723,-0.81309 1.72759,-0.78333 1.72759,-0.78333 1.48615,-0.3851 1.48615,-0.3851 h 0.82613 0.82613 l 1.08751,0.7512 1.08751,0.75119 0.76379,0.86177 0.76379,0.86177 0.36744,1.05367 0.36745,1.05362 0.12776,3.6423 0.12776,3.6422 -1.25899,1.697 -1.259,1.697 -2.07414,2.5956 -2.07415,2.5957 -4.11673,4.1625 -4.11673,4.1625 -1.31889,1.0407 -1.31889,1.0406 -0.58689,0.5421 -0.58689,0.542 -2.43978,1.8269 -2.43979,1.8268 -2.21135,1.4345 -2.21136,1.4345 -2.70479,1.497 -2.70479,1.497 -1.97807,0.9043 -1.97807,0.9043 -2.91663,1.1431 -2.91663,1.1431 -1.18088,0.3158 -1.18087,0.3158 v 0.4135 0.4136 l 1.0527,3.1097 1.0527,3.1097 -0.13954,0.7349 -0.13953,0.7349 -0.93932,1.9968 -0.93932,1.9967 -1.67562,2.5316 -1.67561,2.5315 -2.02504,2.0212 -2.02504,2.0213 -2.45197,1.9782 -2.45197,1.9782 -1.69103,1.1942 -1.69104,1.1941 -3.51215,2.2046 -3.51214,2.2045 -6.33461,3.2749 -6.3346,3.2748 -1.60025,1.1022 -1.60025,1.1023 -1.69103,1.336 -1.69104,1.336 -1.95119,2.074 -1.95119,2.0739 -0.82478,1.1714 -0.82479,1.1714 -1.19247,2.3148 -1.19248,2.3149 -0.57455,2.0813 -0.57456,2.0812 -0.01,5.1606 -0.01,5.1606 -0.69178,0.5951 -0.69178,0.5951 -0.44325,0.8572 -0.44325,0.8571 0.14733,1.0619 0.14734,1.0618 0.80637,2.6016 0.80638,2.6016 0.38127,1.7961 0.38128,1.796 -0.17235,0.5454 -0.17235,0.5454 -0.64384,0.8455 -0.64384,0.8455 -0.4244,0.01 -0.42441,0.01 0.77014,0.5736 0.77013,0.5736 1.14888,1.1489 1.14888,1.1489 1.26557,0.8516 1.26556,0.8517 1.38797,0.3106 1.38797,0.3106 1.38681,-0.2974 1.38681,-0.2974 0.35577,-0.4493 0.35577,-0.4493 0.62386,-1.1871 0.62386,-1.1871 0.3011,-1.6605 0.30111,-1.6605 0.52427,-1.0276 0.52427,-1.0277 0.61663,-0.665 0.61663,-0.665 0.9387,2.0687 0.9387,2.0688 2.41943,4.8129 2.41943,4.813 0.55116,0.9105 0.55115,0.9106 0.17009,0.3902 0.17009,0.3903 2.97694,5.2032 2.97694,5.2031 1.86327,2.9993 1.86327,2.9993 4.45067,6.6266 4.45066,6.6266 1.85533,2.7317 1.85533,2.7317 0.32806,0.4907 0.32806,0.4908 1.04064,1.4648 1.04064,1.4648 2.29015,3.3777 2.29016,3.3777 2.43794,3.5121 2.43794,3.5122 1.53026,2.2113 1.53027,2.2114 2.05409,2.9918 2.05409,2.9918 1.52538,2.2114 1.52537,2.2113 4.60294,6.8943 4.60294,6.8942 2.69319,4.1625 2.69318,4.1626 0.58343,0.9105 0.58343,0.9106 1.17116,1.8211 1.17115,1.8211 2.01915,3.252 2.01914,3.252 0.64716,1.2346 0.64715,1.2346 0.27368,-0.1691 0.27369,-0.1692 -0.17709,0.2866 -0.1771,0.2865 1.44462,2.5504 1.44461,2.5504 3.47138,7.0243 3.47137,7.0243 0.60741,1.5609 0.6074,1.561 0.18171,0.2601 0.18171,0.2602 1.17432,2.9268 1.17433,2.9268 h -32.30657 -32.30656 l -1.81769,-2.4065 -1.81768,-2.4065 -0.1367,-0.1301 -0.13669,-0.13 -1.31253,-1.8212 -1.31252,-1.8211 -1.20728,-1.7234 -1.20727,-1.7234 -2.0465,-3.0895 -2.04651,-3.0896 -1.69706,-2.7316 -1.69706,-2.7317 -1.6649,-2.9262 -1.6649,-2.9262 -54.77606,-6e-4 -54.77606,-6e-4 0.2271,2.2764 0.22711,2.2764 -0.11284,5.4633 -0.11283,5.4634 -0.54628,2.6315 -0.54629,2.6316 -0.51997,1.9403 -0.51997,1.9403 -0.26475,0.6964 -0.26476,0.6963 h -0.12609 -0.1261 l -1.17629,-1.2575 -1.1763,-1.2576 -0.9951,-0.3284 -0.9951,-0.3284 -1.26311,0.5937 -1.26311,0.5938 -2.93519,2.8133 -2.93518,2.8134 h -1.06563 -1.06563 l -0.99289,-0.5066 -0.99289,-0.5065 -0.14238,-1.5097 -0.14239,-1.5097 -0.51953,-1.1707 -0.51954,-1.1707 -0.94471,-0.9536 -0.94471,-0.9536 -1.79587,-1.2271 -1.79587,-1.227 -0.36621,0.1405 -0.36621,0.1405 -0.47094,0.9924 -0.47094,0.9925 0.24019,2.3216 0.2402,2.3217 -0.3111,0.9049 -0.31109,0.9049 -0.8265,0.8528 -0.82649,0.8527 -0.68421,0.1308 -0.6842,0.1308 -0.65507,-0.3457 -0.65507,-0.3456 -1.43088,-1.4739 -1.43087,-1.4738 -1.59399,-1.1478 -1.594,-1.1478 h -0.12524 -0.12525 l -0.97774,1.4726 -0.97774,1.4726 -0.13399,0.9989 -0.13398,0.9989 h -4.90877 -4.90877 v -0.3976 -0.3977 l 0.76734,-1.5201 0.76734,-1.5201 1.57221,-2.0864 1.57221,-2.0865 1.70255,-1.504 1.70255,-1.504 1.60374,-1.167 1.60374,-1.1669 2.22397,-1.341 2.22398,-1.341 1.49147,-0.6342 1.49148,-0.6341 0.004,-0.1951 0.004,-0.1951 h -0.2707 -0.27069 l -0.79419,-0.5854 -0.7942,-0.5853 -0.85223,-1.1707 -0.85223,-1.1707 -1.38103,-2.7317 -1.38103,-2.7317 -0.6075,-0.9756 -0.6075,-0.9756 h -6.63079 -6.6308 l -0.0456,7.7398 -0.0456,7.7397 -0.18185,-3.7723 -0.18184,-3.7723 -0.0327,-3.9675 -0.0327,-3.9674 H 117.4674 104.97976 v 14.8291 14.8291 h -2.34143 -2.34143 z m -52.278642,-17.4475 0.83754,-1.0575 0.28349,0.2835 0.28349,0.2835 -0.31869,0.5103 -0.31868,0.5103 v 0.2637 0.2637 h 1.23575 1.23576 l 0.33473,-0.2124 0.33472,-0.2124 -0.49649,-1.1582 -0.4965,-1.1583 -0.95296,-0.8367 -0.95296,-0.8367 h -1.17349 -1.17349 l -0.57353,0.6017 -0.57353,0.6017 -0.46656,0.8699 -0.46657,0.8699 -0.30107,-0.3011 -0.30108,-0.3011 0.31236,-0.8638 0.31236,-0.8638 v -0.1766 -0.1767 h -0.38424 -0.38424 l -0.41866,0.639 -0.41866,0.6389 0.15675,0.2536 0.15674,0.2537 -0.30653,0.1894 -0.30654,0.1895 -0.47818,-0.5906 -0.47819,-0.5905 v -0.2313 -0.2314 h 0.49249 0.49248 l 0.15791,-0.4115 0.15792,-0.4115 v -0.37 -0.3699 l -0.82035,0.066 -0.82035,0.066 -0.18191,-0.6504 -0.18192,-0.6504 -0.67738,-0.9951 -0.67739,-0.9951 -0.58768,-1.4764 -0.58768,-1.4764 -0.009,-2.9919 -0.009,-2.9918 0.46567,-1.5067 0.46567,-1.5066 0.92344,-1.0222 0.92343,-1.0221 1.47264,-0.7232 1.47265,-0.7232 h 3.38206 3.38207 l 1.07399,0.5745 1.074,0.5745 1.05171,1.1948 1.05172,1.1948 0.9962,2.3244 0.9962,2.3244 0.50684,0.1678 0.50685,0.1678 -0.57189,0.4631 -0.57188,0.4631 v 1.0232 1.0233 l -0.51962,1.5366 -0.51963,1.5366 -0.54727,0.9927 -0.54727,0.9927 0.14719,0.1472 0.14718,0.1472 -0.24049,0.4494 -0.24049,0.4493 -1.24627,0.3369 -1.24627,0.337 -0.447,0.2248 -0.44699,0.2249 0.77952,2.1416 0.77953,2.1416 0.11732,0.3323 0.11732,0.3324 1.30622,-0.662 1.30622,-0.6619 v -0.2557 -0.2558 h 0.66482 0.66482 l 0.5334,-1.2835 0.53341,-1.2835 0.34941,-0.1341 0.34942,-0.1341 0.16093,0.507 0.16093,0.5071 h 0.24187 0.24188 l 1.0334,-0.9336 1.0334,-0.9337 0.63049,-1.3427 0.63048,-1.3428 0.26886,-1.4309 0.26886,-1.4309 0.15352,-1.7268 0.15353,-1.7268 -0.65894,-0.1654 -0.65894,-0.1653 0.56958,-0.9897 0.56957,-0.9897 -0.53798,-1.1506 -0.53799,-1.1506 -0.13407,-1.1165 -0.13406,-1.1164 -1.12899,-1.4643 -1.12898,-1.4642 -1.17072,-0.8582 -1.17071,-0.8581 -2.98512,-1.3556 -2.98511,-1.3556 h -4.16926 -4.16926 l -2.03562,0.5568 -2.03562,0.5568 -1.34645,0.7211 -1.34645,0.7211 -1.31131,1.3008 -1.3113,1.3008 -0.93768,1.6911 -0.93769,1.691 -0.5683,1.8211 -0.5683,1.8211 0.013,2.2538 0.013,2.2537 0.55444,1.3885 0.55444,1.3885 0.37779,1.0203 0.37778,1.0203 0.52391,0.7358 0.52391,0.7357 h 0.48612 0.48612 l 0.0815,0.8391 0.0815,0.8391 1.04063,0.5875 1.04064,0.5875 h 0.30661 0.30662 l 0.39024,-0.3902 0.39024,-0.3903 h 0.16619 0.1662 l -0.14168,0.4553 -0.14167,0.4553 0.19828,0.3151 0.19829,0.3151 1.29169,0.5785 1.29169,0.5786 1.56096,0.4536 1.56095,0.4537 1.2139,0.018 1.21389,0.019 z m -154.006768,0.5372 h 0.73617 l 0.18266,-0.9737 0.18266,-0.9737 -0.34991,-4.5547 -0.34992,-4.5547 0.0503,-2.9918 0.0503,-2.9919 0.20767,-1.8211 0.20767,-1.8211 0.40032,0.9106 0.40034,0.9105 0.3361,1.4309 0.3361,1.4309 0.36006,0.7117 0.36006,0.7116 0.62116,0.1559 0.62116,0.1559 0.73994,-0.4736 0.73994,-0.4737 -0.84551,0.981 -0.84552,0.981 v 0.9232 0.9232 l 0.79906,1.9945 0.79905,1.9945 0.0555,0.7805 0.0555,0.7805 0.687036,1.1707 0.68705,1.1707 0.17428,0.9536 0.17428,0.9535 0.56053,0.5197 0.56055,0.5196 2.991825,0.088 2.991829,0.088 0.598445,-1.7914 0.598445,-1.7914 0.134858,-1.7207 0.134857,-1.7208 0.48174,-1.4309 0.481741,-1.4308 0.812376,-3.6423 0.812377,-3.6422 0.660576,-2.0162 0.660576,-2.0163 h 0.09384 0.09384 l 0.984842,0.5811 0.984842,0.5811 -0.734401,0.2583 -0.734401,0.2582 0.161926,2.868 0.161926,2.8679 0.287806,3.1869 0.287806,3.187 h 0.3275 0.327499 l 0.143299,0.3734 0.143299,0.3734 -0.310584,0.1046 -0.310584,0.1046 0.347596,0.4211 0.347596,0.4212 -0.167831,0.2716 -0.16783,0.2715 h -0.374885 -0.374885 v 2.7411 2.7411 l 2.515463,-0.074 2.515462,-0.075 0.102721,-0.3099 0.102722,-0.31 -0.79707,-0.4122 -0.797071,-0.4121 v -0.1974 -0.1974 l 0.780478,-0.461 0.780477,-0.4611 v -0.2305 -0.2305 l -1.085456,-0.08 -1.085457,-0.08 -0.111067,-0.3376 -0.111068,-0.3375 1.288394,0.1709 1.288394,0.1709 0.168289,-0.8415 0.168289,-0.8414 -0.0022,-1.7236 -0.0022,-1.7235 -0.382999,-2.8618 -0.382998,-2.8617 -0.0027,-1.4309 -0.0027,-1.4309 -0.8225,-0.6761 -0.822501,-0.676 0.185546,-0.3003 0.185547,-0.3002 0.526811,0.282 0.526811,0.2819 0.143658,-0.1436 0.143658,-0.1437 0.12563,-2.414 0.125631,-2.4139 -0.418208,-0.9992 -0.418208,-0.9991 0.276751,-0.5171 0.27675,-0.5171 -0.12679,-0.3304 -0.126791,-0.3305 -1.649316,-0.1789 -1.649317,-0.1789 -2.772991,-0.2499 -2.772991,-0.2499 -0.391441,-0.1502 -0.391441,-0.1502 0.04928,2.0025 0.04928,2.0026 -0.657154,0.2877 -0.657155,0.2878 -0.191135,0.2655 -0.191136,0.2654 -0.0058,0.6504 -0.0058,0.6504 -0.662324,1.9512 -0.662323,1.9512 -0.153293,1.1707 -0.153293,1.1707 -0.459682,0.9188 -0.459683,0.9188 -0.273812,1.4812 -0.273811,1.4812 -0.398419,0.7705 -0.398418,0.7704 -0.25093,0.1551 -0.250929,0.1551 -0.425245,-0.8223 -0.425244,-0.8224 -0.373186,-1.2566 -0.37318,-1.2567 -0.44841,0.1439 -0.44841,0.1438 0.37308,-0.2646 0.37307,-0.2646 -0.71744,-1.0842 -0.71745,-1.0841 -0.63122,0.1584 -0.63123,0.1585 v -0.2047 -0.2048 l 0.6504,-0.9571 0.6504,-0.9572 v -0.5422 -0.5423 l -0.36682,-0.1408 -0.36681,-0.1408 -0.29583,-1.6987 -0.29583,-1.6988 -0.633286,-1.6825 -0.63328,-1.6825 -0.53769,-0.7551 -0.53769,-0.7551 -4.21508,0.06 -4.21508,0.06 -0.47165,0.2775 -0.47165,0.2776 0.0201,7.0048 0.0201,7.0048 0.15892,1.5931 0.15891,1.5931 0.48776,-0.1275 0.48776,-0.1276 v 0.1968 0.1968 l -0.45528,0.3334 -0.45528,0.3335 v 4.2917 4.2916 l 0.20605,0.2058 0.20606,0.2057 1.22482,0.1801 1.22482,0.18 0.74796,-0.1043 0.74796,-0.1042 z m 207.36304,-0.4131 0.21242,-0.1313 0.51477,0.2755 0.51476,0.2755 0.27109,-0.5065 0.27108,-0.5066 v -1.5611 -1.5611 l -0.25046,-0.6588 -0.25047,-0.6587 0.38055,-0.9108 0.38054,-0.9108 v -0.5286 -0.5287 h -1.40205 -1.40205 l -0.61418,-0.5117 -0.614182,-0.5116 0.57311,-0.01 0.573122,-0.01 0.64346,0.2931 0.64345,0.2932 0.66958,-0.168 0.66958,-0.1681 v -2.996 -2.9961 l 0.41892,-0.6393 0.41891,-0.6394 -0.1581,-0.6299 -0.15811,-0.6299 -0.76627,0.2892 -0.76627,0.2892 -1.27723,-0.5982 -1.277232,-0.5982 -0.48229,0.093 -0.4823,0.093 -0.18059,0.649 -0.18059,0.6491 -0.0259,1.8708 -0.0259,1.8708 -0.25915,0.1601 -0.25916,0.1602 0.064,0.8207 0.064,0.8207 -0.43797,0.091 -0.43797,0.091 -0.81979,-0.8579 -0.81979,-0.8578 -1.03801,-2.2148 -1.03801,-2.2148 -0.82614,-1.6641 -0.82613,-1.6642 -1.12622,-1.1325 -1.12621,-1.1326 h -0.34238 -0.34237 l -0.13622,-0.9756 -0.13622,-0.9756 -0.23819,-1.0607 -0.23818,-1.0606 -0.18422,-0.2981 -0.18423,-0.2981 -1.02768,-0.2767 -1.02768,-0.2767 -2.31866,0.175 -2.31866,0.175 -0.28304,1.9808 -0.28303,1.9808 -0.26762,2.4715 -0.26761,2.4715 -0.0658,6.1137 -0.0658,6.1138 -0.44401,0.8757 -0.44401,0.8757 0.45041,0.5552 0.4504,0.5551 1.3008,-0.067 1.30079,-0.067 -0.45528,0.2748 -0.45528,0.2747 v 0.3774 0.3773 h -0.37488 -0.37489 l -0.18374,-0.2973 -0.18374,-0.2973 -0.36598,0.6985 -0.36598,0.6985 0.16147,0.5087 0.16147,0.5088 0.56802,0.1233 0.56802,0.1234 0.39023,0.038 0.39024,0.038 1.52348,-0.031 1.52348,-0.031 -0.0562,-3.7073 -0.0562,-3.7072 0.41349,-1.6911 0.41348,-1.691 0.005,-2.131 0.005,-2.1309 -0.26016,-0.1608 -0.26016,-0.1608 v -0.2448 -0.2448 h 0.3599 0.3599 l 0.15454,-0.5854 0.15454,-0.5853 0.86489,1.3008 0.86488,1.3008 1.74668,2.5134 1.74668,2.5134 0.61603,1.393 0.61603,1.3929 1.20146,1.1075 1.20146,1.1075 0.65731,0.2995 0.65731,0.2995 -0.30213,0.1867 -0.30212,0.1867 0.42482,0.6065 0.42482,0.6065 v 0.5405 0.5405 l 0.31219,0.3122 0.3122,0.3122 h 0.46828 0.46829 l 0.49774,0.4977 0.49773,0.4978 1.105592,-0.2485 1.10558,-0.2484 z m -155.140841,0.098 0.315185,-0.3152 1.037642,0.075 1.037642,0.075 v -0.301 -0.301 l -1.040636,-0.4088 -1.040637,-0.4087 v -0.3954 -0.3953 l 0.43056,-0.4758 0.43056,-0.4757 h 0.848958 0.848958 l 0.411516,-0.1579 0.411516,-0.1579 v -0.9608 -0.9608 l -0.269826,-0.2698 -0.269827,-0.2698 0.269827,-0.7097 0.269826,-0.7097 v -1.6538 -1.6537 l 1.113406,-1.6464 1.113405,-1.6463 3.355338,-4.813 3.355338,-4.8129 1.124677,-1.548 1.124677,-1.5479 v -0.2082 -0.2081 h -2.972889 -2.972889 l -0.799418,0.9699 -0.799418,0.9698 v 0.3595 0.3596 l -1.235755,1.3593 -1.235756,1.3594 -1.197738,1.799 -1.197738,1.799 -0.428256,0.7063 -0.428256,0.7063 -0.482113,0.258 -0.482114,0.258 -1.209202,-1.7697 -1.209201,-1.7697 -2.66635,-3.185 -2.666349,-3.1849 -2.585419,-0.1092 -2.585418,-0.1091 -0.471451,0.1496 -0.471451,0.1496 v 0.3636 0.3636 l 0.52067,0.2786 0.520669,0.2787 0.630677,1.2445 0.630678,1.2446 2.178135,2.7278 2.178136,2.7278 0.576942,0.9335 0.576943,0.9335 0.886326,0.6761 0.886327,0.676 0.735629,1.4981 0.735629,1.498 0.202577,4.0325 0.202576,4.0325 -0.0083,1.4959 -0.0083,1.4959 h 0.729284 0.729285 z m 2.260389,-16.8554 0.160788,-0.2601 h 0.114725 0.114726 v 0.2601 0.2602 h -0.275513 -0.275513 z m 63.1425,16.4125 1.4848,-0.5718 1.90843,-1.2459 1.90844,-1.2458 0.79671,-1.016 0.79671,-1.016 0.27171,-0.5203 0.27172,-0.5204 0.0911,-0.9105 0.0911,-0.9106 -1.69104,-0.5625 -1.69103,-0.5625 -1.17072,-0.1687 -1.17071,-0.1686 -0.89034,1.6674 -0.89033,1.6674 -0.88432,0.6059 -0.8843302,0.606 -1.34725,0.4655 -1.34725,0.4656 -2.02459,0.01 -2.02459,0.01 -0.96724,-0.404 -0.96724,-0.4041 -0.74141996,-0.7016 -0.74141,-0.7017 -0.71058,-1.0406 -0.71057004,-1.0406 -0.36913,-2.3415 -0.36912,-2.3414 0.02,-2.2196 0.02,-2.2197 0.65716,-1.4354 0.65716004,-1.4355 1.05824,-0.8381 1.05823996,-0.8381 1.12635,-0.4934 1.12637,-0.4933 1.17071,-0.1656 1.17072,-0.1655 2.03554,0.3954 2.03554,0.3953 1.0711202,0.5942 1.07111,0.5942 0.68091,1.1707 0.6809,1.1707 0.71539,0.084 0.71539,0.084 1.59626,-0.539 1.59627,-0.5391 h 0.59988 0.59988 v -0.5231 -0.5232 l -0.55183,-1.174 -0.55183,-1.1739 -1.46395,-1.2842 -1.46395,-1.2841 -1.40606,-0.6885 -1.40606,-0.6884 -2.8870202,-0.2576 -2.88701,-0.2575 -2.21136,0.1485 -2.21135,0.1486 -1.30079996,0.3925 -1.30079,0.3925 -0.91056004,0.5661 -0.91056,0.5662 0.73207,0.2004 0.73207004,0.2004 0.37361,0.3101 0.37361,0.3101 v 0.4667 0.4668 l 0.3116,0.1039 0.3116,0.1039 -1.18334,0.8141 -1.18335004,0.8142 -0.55451,-0.145 -0.55451,-0.145 -0.4599,0.8503 -0.4599,0.8504 -0.39323,0.4175 -0.39322,0.4175 0.0845,0.4387 0.0845,0.4386 -0.28577,0.534 -0.28576,0.5339 h -0.40892 -0.40892 l 0.16258,-0.4237 0.16259,-0.4236 -0.78515,0.157 -0.78515,0.157 v -0.3519 -0.3518 l 0.3252,-0.2641 0.3252,-0.264 0.4922,-0.093 0.49221,-0.093 0.80068,-0.99 0.80068,-0.9899 -0.38233,-0.2418 -0.38233,-0.2418 h -0.69655 -0.69656 l -0.52318,0.6651 -0.52318,0.6651 -0.44068,1.3511 -0.44068,1.3511 -0.25699,0.3245 -0.25699,0.3245 -0.16387,2.017 -0.16386,2.0169 0.17844,2.092 0.17844,2.092 0.57532,1.5502 0.57532,1.5503 0.73822,1.0818 0.73822,1.0818 1.10961,1.09 1.10961,1.0901 1.17071,0.6891 1.17072,0.6892 2.08127004,0.4523 2.08127996,0.4524 3.64223,-0.089 3.6422202,-0.089 z m 122.611082,0.3603 1.04064,-0.3749 h 1.0726 1.07261 l 1.24035,-0.5487 1.24036,-0.5486 1.10468,-1.0183 1.10467,-1.0182 0.56483,-1.313 0.56482,-1.313 0.01,-1.2426 0.01,-1.2426 -0.65177,-1.2863 -0.65178,-1.2862 -1.14538,-1.0558 -1.14537,-1.0557 -1.17509,-0.6887 -1.17509,-0.6886 -1.54016,-0.5385 -1.54017,-0.5385 -3.77231,-1.0007 -3.7723,-1.0007 -1.4677,-0.5514 -1.4677,-0.5515 -0.15475,-0.5772 -0.15474,-0.5772 -0.004,-0.8455 -0.004,-0.8455 h -0.24861 -0.2486 l -0.96779,0.6567 -0.96778,0.6568 -0.27953,-0.285 -0.27952,-0.285 0.6504,-0.4884 0.65039,-0.4885 0.32967,-0.3386 0.32968,-0.3386 0.74493,-0.9106 0.74494,-0.9105 0.0983,-0.5133 0.0983,-0.5133 0.99303,-0.557 0.99303,-0.557 -0.43116,-0.1655 -0.43115,-0.1654 h -1.09836 -1.09836 l -1.36132,0.6783 -1.36132,0.6784 -0.90694,1.1878 -0.90694,1.1878 -0.40827,1.4044 -0.40828,1.4044 0.43729,1.3473 0.43729,1.3472 0.51156,0.8346 0.51156,0.8345 0.80136,0.6743 0.80136,0.6743 0.7655,-0.1682 0.76551,-0.1681 0.9241,0.1734 0.92411,0.1733 -0.22901,0.222 -0.229,0.222 -0.78048,0.096 -0.78048,0.096 1.56096,0.7329 1.56095,0.7328 1.3008,0.3892 1.30079,0.3891 2.73167,0.6389 2.73167,0.6389 1.11277,0.5312 1.11278,0.5313 0.38314,0.7409 0.38314,0.7409 v 0.7735 0.7734 l -0.68139,0.8098 -0.68138,0.8098 -0.81453,0.4413 -0.81453,0.4413 -3.25199,-0.01 -3.25199,-0.01 -1.47276,-0.5807 -1.47276,-0.5806 -0.99213,-0.7884 -0.99212,-0.7885 -0.81692,0.1533 -0.81692,0.1532 -0.62058,-0.5035 -0.62058,-0.5036 0.72956,-0.1838 0.72956,-0.1837 0.89644,0.1454 0.89643,0.1455 v -0.3526 -0.3526 l -0.15791,-0.4115 -0.15792,-0.4115 h -2.29232 -2.29232 l -0.41151,0.1579 -0.41152,0.1579 v 1.2326 1.2327 l 0.54382,0.4921 0.54381,0.4922 0.33597,-0.4595 0.33598,-0.4595 0.14565,0.3796 0.14566,0.3796 1.12087,0.2216 1.12087,0.2217 v 0.382 0.382 l -0.6504,-0.015 -0.6504,-0.016 -0.58664,-0.1975 -0.58664,-0.1975 -0.16321,0.4253 -0.16321,0.4253 0.87756,0.9055 0.87757,0.9054 1.1104,0.6507 1.1104,0.6508 1.8838,0.4936 1.88379,0.4936 h 3.51215 3.51214 z m 113.98567,0.01 0.14975,-0.3902 h 1.48109 1.48109 l 0.31219,-0.3122 0.31219,-0.3122 v 0.3122 0.3122 h 0.71544 0.71544 l 0.58954,-0.158 0.58954,-0.158 -0.0692,-0.4238 -0.0692,-0.4238 1.37392,-0.244 1.37392,-0.2439 -0.0718,-0.4235 -0.0718,-0.4236 0.97499,-0.8561 0.97499,-0.856 0.42369,-1.4575 0.42369,-1.4574 -0.16999,-2.2115 -0.16999,-2.2115 -0.38699,-0.5907 -0.38699,-0.5906 -0.79552,-0.4114 -0.79552,-0.4113 -1.47842,-0.049 -1.47843,-0.049 -0.15591,2.6015 -0.15592,2.6016 -0.45939,1.11 -0.45939,1.1099 -1.15395,1.0157 -1.15394,1.0158 -1.0925,0.1798 -1.0925,0.1798 -0.91055,0.3662 -0.91056,0.3662 -0.52032,0.6146 -0.52032,0.6146 -0.48235,-0.1773 -0.48235,-0.1772 0.68418,-0.8132 0.68419,-0.8131 -0.26338,-0.1627 -0.26338,-0.1628 -0.96756,0.2671 -0.96757,0.2672 -0.1416,-0.1942 -0.14161,-0.1942 -0.68263,-0.2994 -0.68264,-0.2994 -0.1731,-0.9227 -0.1731,-0.9227 -0.37299,-0.373 -0.37299,-0.373 0.23859,-4.9036 0.23859,-4.9036 0.17424,-4.5696 0.17424,-4.5697 -0.46221,-0.4622 -0.4622,-0.4622 -2.4942,0.1433 -2.49421,0.1432 -0.085,0.011 -0.085,0.011 0.0675,0.8455 0.0675,0.8455 -0.29021,0.9106 -0.29021,0.9106 -0.0906,4.3576 -0.0906,4.3577 0.78852,0.01 0.78852,0.01 -0.58996,0.4541 -0.58995,0.454 0.0476,0.906 0.0476,0.906 -0.20671,3.1314 -0.20671,3.1315 0.55727,1.0923 0.55727,1.0923 0.60144,0.3941 0.60144,0.3941 1.67161,0.5948 1.6716,0.5948 0.25146,0.5634 0.25145,0.5635 1.17942,0.2783 1.17942,0.2783 1.56096,0.2227 1.56095,0.2227 0.7236,0.032 0.7236,0.032 z m 44.39488,-0.2396 1.24446,-0.4373 1.61729,-0.9478 1.61728,-0.9478 1.22484,-1.1456 1.22484,-1.1456 0.53123,-1.0974 0.53124,-1.0974 v -0.5616 -0.5615 l -0.71544,-0.3613 -0.71544,-0.3612 -1.91806,-0.4259 -1.91807,-0.426 h -0.18936 -0.18936 l -0.81936,1.3181 -0.81937,1.3181 v 0.2461 0.2461 l -1.36583,0.8633 -1.36584,0.8633 -1.2165,0.3326 -1.21651,0.3326 -2.03548,-0.095 -2.03548,-0.095 -1.01616,-0.5311 -1.01615,-0.5312 -1.10684,-1.418 -1.10684,-1.4181 -0.41356,-2.4523 -0.41356,-2.4523 v -2.1603 -2.1602 l 0.42795,-1.111 0.42794,-1.1109 1.06797,-1.1173 1.06797,-1.1172 1.3008,-0.6069 1.30079,-0.6069 1.21007,-0.1741 1.21007,-0.1741 1.78176,0.3035 1.78176,0.3035 1.33224,0.6221 1.33223,0.6222 0.63264,1.2328 0.63265,1.2327 0.91893,0.078 0.91894,0.078 1.3534,-0.5334 1.35341,-0.5335 h 0.79905 0.79904 l -0.17632,-0.7154 -0.17632,-0.7155 -0.56579,-1.1405 -0.56579,-1.1405 -1.76279,-1.3793 -1.76279,-1.3793 -1.36985,-0.5125 -1.36984,-0.5125 -3.7638,-0.1865 -3.76381,-0.1864 -1.56026,0.3067 -1.56026,0.3067 -0.78047,0.2934 -0.78048,0.2934 -0.90591,0.6024 -0.90591,0.6024 h 0.59781 0.59782 l 0.50321,0.2694 0.50322,0.2693 v 0.4958 0.4958 l 0.26016,0.1608 0.26016,0.1608 -4.7e-4,0.1797 -4.7e-4,0.1798 -1.16342,0.735 -1.16343,0.735 -0.2435,-0.1505 -0.24351,-0.1505 -0.3935,0.151 -0.3935,0.151 -0.40835,1.0206 -0.40835,1.0205 h -0.26226 -0.26227 v 0.7285 0.7284 l -0.31219,0.3122 -0.31219,0.3122 h -0.20813 -0.20812 v -0.4109 -0.4109 l -0.78048,0.1714 -0.78048,0.1714 v -0.3812 -0.3813 l 0.88273,-0.4189 0.88273,-0.4189 0.8436,-0.9608 0.8436,-0.9608 -0.49057,-0.1926 -0.49058,-0.1926 -0.70944,-0.018 -0.70944,-0.018 -0.39266,0.5993 -0.39266,0.5992 -0.52251,1.5188 -0.52252,1.5187 -0.28227,0.3401 -0.28227,0.3401 -0.14456,2.9402 -0.14457,2.9402 0.54183,2.1416 0.54183,2.1417 0.68774,1.1735 0.68775,1.1736 1.14643,1.2751 1.14642,1.2751 1.23641,0.786 1.2364,0.7861 1.17072,0.3142 1.17071,0.3141 1.3008,0.2116 1.30079,0.2116 3.38207,-0.08 3.38207,-0.08 z m -72.78822,-0.06 2.86175,-0.1408 0.21923,-0.2072 0.21922,-0.2072 -0.28905,-0.5401 -0.28904,-0.5401 -1.23098,-0.7049 -1.23097,-0.7048 -0.13008,-0.1055 -0.13008,-0.1055 v -0.7447 -0.7447 l -2.28628,-2.4765 -2.28628,-2.4766 -1.16083,-0.8336 -1.16082,-0.8336 v -0.1594 -0.1594 l 2.17533,-0.9412 2.17532,-0.9413 1.09896,-0.6937 1.09897,-0.6937 0.47855,-1.0884 0.47855,-1.0883 0.0416,-1.4309 0.0417,-1.4309 -0.0222,-0.1902 -0.0222,-0.1902 -1.62599,0.8758 -1.626,0.8758 -0.69949,0.1609 -0.69949,0.1609 -0.14316,-0.2317 -0.14316,-0.2316 0.32233,-0.2642 0.32234,-0.2642 1.05384,-0.2817 1.05385,-0.2816 0.57994,-0.7844 0.57993,-0.7844 h 0.41649 0.41649 l -0.15502,-0.9554 -0.15503,-0.9553 -0.98469,-1.0104 -0.98469,-1.0104 -1.62825,-0.8027 -1.62825,-0.8028 -4.87573,-0.2482 -4.87572,-0.2482 -2.99183,-0.032 -2.99183,-0.032 -1.48365,0.2043 -1.48366,0.2044 -0.56831,1.4787 -0.56832,1.4787 -0.12656,1.3658 -0.12656,1.3659 h 0.42246 0.42245 v 0.7805 0.7804 h -0.35476 -0.35476 v 1.046 1.046 l -0.45638,0.5043 -0.45638,0.5043 0.18747,5.5391 0.18747,5.539 0.53894,0.5854 0.53894,0.5853 h -0.41806 -0.41805 l -0.1607,0.5063 -0.16069,0.5063 0.0781,1.444 0.0781,1.444 1.48056,9e-4 1.48056,9e-4 0.16078,-0.2602 0.16079,-0.2601 -0.34055,-10e-4 h -0.34055 l -0.98226,-0.2728 -0.98226,-0.2728 0.1521,-0.2461 0.15209,-0.2461 h 1.00993 1.00993 l 0.14792,-0.2393 0.14793,-0.2394 -0.79945,-0.6256 -0.79946,-0.6257 0.42057,-0.349 0.42057,-0.3491 1.60429,0.2984 1.6043,0.2983 0.26338,-0.2634 0.26338,-0.2633 0.0985,-1.951 0.0985,-1.9509 -0.30307,-1.2036 -0.30307,-1.2036 0.33927,-0.2192 0.33926,-0.2193 1.02673,-0.2838 1.02673,-0.2839 0.27406,0.3708 0.27407,0.3709 0.96231,0.1547 0.9623,0.1548 0.94525,0.4485 0.94524,0.4486 2.06007,1.9764 2.06007,1.9764 -1.9e-4,0.6153 -1.9e-4,0.6152 1.95119,2.005 1.95119,2.0051 v 0.5962 0.5962 l 0.84552,-0.1739 0.84552,-0.1739 z m -17.34539,-15.6606 -1.47569,-0.1727 -0.17848,-0.1785 -0.17848,-0.1785 0.0512,-1.6412 0.0512,-1.6411 -0.0213,-0.5992 -0.0213,-0.5991 -0.25507,-0.4766 -0.25507,-0.4766 -0.7223,-0.1824 -0.7223,-0.1824 0.78048,-0.4057 0.78047,-0.4057 0.1753,-0.2706 0.17529,-0.2707 0.42323,0.3513 0.42323,0.3512 4.60466,0.1886 4.60466,0.1886 0.91055,0.2868 0.91056,0.2867 0.84552,0.5187 0.84551,0.5187 0.0288,0.7193 0.0288,0.7192 -0.0513,0.6504 -0.0513,0.6504 -0.66541,0.7038 -0.66542,0.7037 -1.19827,0.4353 -1.19828,0.4352 -3.25199,0.073 -3.25199,0.073 z m -36.1173,15.5512 v -0.2787 l -0.37165,-0.3717 -0.37166,-0.3716 h -0.29409 -0.2941 l 0.14968,0.2422 0.14968,0.2421 -0.26441,0.1634 -0.2644,0.1635 v 0.2448 0.2448 h 0.78048 0.78047 z m 157.13609,-0.08 v -0.3584 l -0.39653,-0.329 -0.39652,-0.3291 -0.0915,0.1021 -0.0915,0.1021 -0.17993,0.5854 -0.17993,0.5853 h 0.66793 0.66793 z m -152.29599,-0.357 0.14091,-0.4553 0.24117,-0.4518 0.24117,-0.4517 v -1.3881 -1.388 l -0.42273,-1.2407 -0.42273,-1.2406 -0.74706,-0.4543 -0.74705,-0.4543 0.15897,-0.159 0.15896,-0.159 0.6287,0.412 0.6287,0.4119 0.17046,-0.1704 0.17047,-0.1705 -0.0699,-3.0496 -0.0699,-3.0496 -0.30377,-0.1973 -0.30378,-0.1972 0.53903,-0.1483 0.53903,-0.1483 0.0347,-3.6428 0.0348,-3.6427 0.16808,-0.5296 0.16808,-0.5296 4.78653,0.095 4.78652,0.095 v -1.4456 -1.4456 l 0.286,-0.286 0.28601,-0.286 -0.16727,-0.527 -0.16727,-0.527 -1.61465,-0.1694 -1.61465,-0.1694 -3.25199,0.1457 -3.25199,0.1457 -1.13405,0.014 -1.13406,0.014 0.12238,0.6402 0.12239,0.6402 h -0.33663 -0.33663 l -0.16515,-0.5203 -0.16514,-0.5203 h -0.50278 -0.50279 v 0.3748 0.3749 l -0.27942,0.1727 -0.27942,0.1727 -0.58286,-0.5476 -0.58287,-0.5475 h -0.29928 -0.29928 l -0.24472,0.4572 -0.24472,0.4573 0.49573,0.6122 0.49572,0.6122 v 1.0118 1.0118 h 0.143 0.143 l 0.79174,-0.4094 0.79173,-0.4094 0.15953,0.1595 0.15954,0.1595 -0.48484,0.9003 -0.48483,0.9003 h -0.32365 -0.32365 l -0.74106,-0.906 -0.74106,-0.906 -1.71837,-1.7717 -1.71837,-1.7718 -0.43293,0.2713 -0.43292,0.2713 -0.81073,-0.4634 -0.81073,-0.4635 -0.15004,0.1501 -0.15003,0.15 0.31535,0.505 0.31535,0.5049 v 0.1336 0.1337 h -0.26016 -0.26016 l -1.0466,-1.0466 -1.0466,-1.0466 -0.49551,0.2651 -0.49551,0.2652 -0.40908,-0.157 -0.40909,-0.1569 0.002,0.2229 0.002,0.223 0.35246,0.6754 0.35246,0.6755 -0.4439,0.2772 -0.4439,0.2772 -0.0245,0.8628 -0.0245,0.8628 0.30949,0.1968 0.30948,0.1968 h 1.74072 1.74072 l 0.1512,-0.2447 0.15121,-0.2446 -0.58764,-0.5475 -0.58765,-0.5475 0.38676,-0.2445 0.38675,-0.2445 h 0.14924 0.14923 l 0.24101,0.9756 0.241,0.9756 0.59968,0.085 0.59967,0.085 0.40407,-0.3354 0.40408,-0.3353 0.31386,0.4292 0.31386,0.4292 1.25082,0.081 1.25081,0.081 -0.0578,5.2032 -0.0578,5.2032 -0.12478,3.1348 -0.12477,3.1348 0.91352,0.026 0.91352,0.026 0.27779,0.1717 0.27779,0.1717 v 0.278 0.2781 l -1.0133,-0.1621 -1.0133,-0.162 -0.15741,0.4102 -0.15742,0.4103 v 1.3514 1.3514 l 1.04064,-0.099 1.04063,-0.099 v 0.1938 0.1937 l -0.45528,0.3496 -0.45527,0.3497 0.58535,0.1647 0.58536,0.1646 v 0.3599 0.3599 h 1.95936 1.95936 z m 157.44691,-0.4087 0.31242,-0.864 v -1.746 -1.7459 l -0.35872,-0.8586 -0.35871,-0.8585 -0.68192,-0.5364 -0.68193,-0.5364 v -0.1724 -0.1724 l 0.57821,0.4049 0.5782,0.405 h 0.33236 0.33235 v -3.1089 -3.109 l -0.43262,-0.2421 -0.43262,-0.2421 0.5627,-0.1786 0.5627,-0.1786 0.0584,-2.1288 0.0584,-2.1288 -0.0686,-1.4941 -0.0686,-1.494 0.29445,-0.5502 0.29446,-0.5502 4.81461,0.095 4.81461,0.095 -0.13802,-1.0291 -0.13801,-1.029 0.32072,-0.7943 0.32073,-0.7943 -0.0908,-0.4206 -0.0908,-0.4205 -1.35345,-0.1626 -1.35346,-0.1625 h -3.43175 -3.43176 l -0.16994,0.2749 -0.16994,0.275 -1.08117,-0.08 -1.08117,-0.08 0.0814,0.5854 0.0814,0.5853 h -0.26736 -0.26736 l -0.27846,-0.5203 -0.27847,-0.5203 h -0.31851 -0.3185 l -0.34314,0.5494 -0.34313,0.5495 -0.71489,-0.6849 -0.71489,-0.6849 -0.43543,0.4811 -0.43543,0.4811 v 0.1933 0.1932 l 0.37476,0.3747 0.37477,0.3748 0.17509,1.1676 0.17509,1.1676 h 0.21527 0.21527 l 0.16078,-0.2601 0.16079,-0.2602 h 0.50496 0.50497 l -0.006,0.3252 -0.006,0.3252 -0.47727,0.6207 -0.47727,0.6207 -0.81512,-0.6027 -0.81513,-0.6026 -0.13616,-0.429 -0.13617,-0.429 -1.63903,-1.5674 -1.63903,-1.5673 -0.77877,0.1143 -0.77877,0.1143 -0.34226,-0.4124 -0.34225,-0.4124 h -0.35839 -0.35838 v 0.2023 0.2023 l 0.40499,0.5782 0.40499,0.5782 h -0.38613 -0.38614 l -0.60421,-0.7482 -0.60421,-0.7482 -0.53434,-0.2743 -0.53434,-0.2743 -0.35263,0.2179 -0.35262,0.218 -0.32248,-0.1238 -0.32248,-0.1237 -0.17174,0.2779 -0.17175,0.2779 h 0.24518 0.24519 l 0.1261,0.6596 0.12611,0.6597 -0.42098,0.3159 -0.42097,0.316 -0.0728,0.7021 -0.0728,0.7021 0.51098,0.2735 0.51098,0.2735 h 1.5627 1.5627 l 0.17092,-0.2766 0.17092,-0.2765 -0.44121,-0.4876 -0.44121,-0.4875 0.17092,-0.2766 0.17092,-0.2765 h 0.37488 0.37489 v 0.6291 0.6291 l 0.15791,0.4115 0.15792,0.4116 h 0.49601 0.49602 l 0.53122,-0.3252 0.53122,-0.3252 0.25865,0.4552 0.25865,0.4553 h 1.10576 1.10576 l 0.27109,0.2711 0.27109,0.2711 -0.24385,1.485 -0.24385,1.485 0.1477,3.5121 0.14771,3.5122 -0.23496,1.1707 -0.23496,1.1707 0.1461,1.9512 0.1461,1.9512 0.76582,0.029 0.76581,0.029 0.43589,0.4557 0.43588,0.4558 -1.20109,-0.17 -1.20108,-0.17 -0.16475,0.8238 -0.16475,0.8237 v 0.8781 0.878 h 1.04064 1.04063 v 0.2081 0.2081 l -0.32071,0.3208 -0.32071,0.3207 0.59559,0.1557 0.59558,0.1558 -0.13663,0.356 -0.13663,0.3561 h 2.02085 2.02084 z m -89.1823,-0.2914 v -0.1147 l -0.26016,-0.1608 -0.26016,-0.1608 v 0.2755 0.2755 h 0.26016 0.26016 z m -39.28403,-1.0406 v -0.1148 l -0.26015,-0.1608 -0.26016,-0.1607 v 0.2755 0.2755 h 0.26016 0.26015 z m -1.17071,-1.1861 -0.16079,-0.2602 h -0.2448 -0.24481 v 0.2602 0.2601 h 0.40559 0.4056 z m 61.0073,-10.1462 v -0.2602 h -0.39024 -0.39024 v 0.2602 0.2601 h 0.39024 0.39024 z m -0.30909,-0.944 0.23709,-0.4236 0.18143,0.2935 0.18144,0.2936 h 0.2448 0.24481 v -0.3902 -0.3903 h -0.35598 -0.35599 l -0.18175,-1.1057 -0.18175,-1.1056 0.001,-0.4553 10e-4,-0.4553 h -0.22541 -0.22541 l -0.40882,-0.4088 -0.40882,-0.4088 v -0.1846 -0.1845 l 0.78503,-0.2963 0.78502,-0.2963 0.41523,-0.9938 0.41523,-0.9938 -0.18648,-1.6937 -0.18648,-1.6938 -0.0382,-0.6504 -0.0382,-0.6504 -1.95119,-0.081 -1.9512,-0.081 -1.13031,0.166 -1.13031,0.1659 0.16206,1.2161 0.16206,1.2161 0.027,0.6504 0.027,0.6504 -0.44608,1.1707 -0.44608,1.1708 0.12732,2.8617 0.12732,2.8618 1.96608,0.1424 1.96609,0.1424 0.18278,0.1828 0.18278,0.1828 h 0.59411 0.59411 z m -156.22397,-3.3384 0.38003,-0.3801 0.18597,-2.5983 0.18598,-2.5984 -0.18273,-1.5744 -0.18272,-1.5744 h -2.44596 -2.445972 v 0.5643 0.5644 l -0.78048,1.3829 -0.78048,1.3829 v 0.2706 0.2705 l 0.67838,0.2579 0.67837,0.2579 -0.11642,0.8414 -0.11643,0.8413 -0.10667,0.3902 -0.10667,0.3903 0.52315,-0.071 0.52315,-0.071 1.428052,0.9097 1.42804,0.9097 0.43669,0.01 0.43669,0.01 z m 34.70816,-1.5983 -0.15718,-0.1572 -0.34146,0.1367 -0.34146,0.1366 0.49864,0.02 0.49863,0.021 z m 3.53149,-0.7039 -0.0511,-0.7311 -0.41009,-1.4106 -0.41009,-1.4107 -0.52743,-0.4914 -0.52743,-0.4914 -2.22872,-0.9294 -2.22871,-0.9294 -0.75713,0.5598 -0.75713,0.5597 0.13807,0.3598 0.13806,0.3599 -2.66756,-0.1372 -2.66756,-0.1372 -0.96263,-0.1736 -0.96263,-0.1737 -0.79344,0.565 -0.79345,0.565 v 0.196 0.196 l 3.96743,0.3326 3.96742,0.3326 0.48268,0.258 0.48267,0.2579 0.9482,-0.1628 0.9482,-0.1627 0.71544,-0.1419 0.71544,-0.1419 v 0.5192 0.5192 l -0.78048,0.3455 -0.78048,0.3455 v 0.3092 0.3092 l 0.50122,0.159 0.50123,0.1591 0.95729,-0.4 0.95729,-0.3999 0.23252,0.1437 0.23252,0.1437 v 0.7217 0.7218 l 0.18568,0.1857 0.18568,0.1857 1.05008,-0.077 1.05007,-0.077 z m 105.28546,-0.1796 v -0.2601 h -0.39024 -0.39024 v 0.2601 0.2602 h 0.39024 0.39024 z m -249.7694422,-2.0654 0.37351,-0.2363 -0.34033,-0.4101 -0.34032,-0.4101 h -0.74862 -0.74863 v 0.3773 0.3774 l 0.45528,0.2651 0.45528,0.2652 h 0.26016 0.26016 z M 125.27332,1216.951 v -0.2184 h -0.48846 -0.48846 l -0.28976,0.3492 -0.28976,0.3491 0.15378,0.1538 0.15378,0.1538 0.62444,-0.2846 0.62444,-0.2845 z m 153.49386,0.5532 0.39023,-0.2611 -0.505,-0.3853 -0.505,-0.3853 h -0.58532 -0.58532 l -0.14979,0.2423 -0.14978,0.2424 0.58256,0.408 0.58255,0.4081 h 0.26732 0.26731 z m -146.02879,-3.4811 0.72994,-0.6283 -0.15032,-0.1507 -0.15032,-0.1508 -2.49862,-0.1081 -2.49862,-0.1081 -0.47297,0.3585 -0.47297,0.3586 0.6504,0.01 0.6504,0.01 1.30079,0.5079 1.3008,0.508 0.44077,0.012 0.44077,0.012 z m 138.05942,-14.1358 -4.83842,-9.5608 -4.16775,-8.195 -4.16775,-8.195 -0.58327,-1.0407 -0.58328,-1.0406 -0.98085,-1.8211 -0.98086,-1.8211 -1.29037,-2.3415 -1.29037,-2.3414 -1.32181,-2.2114 -1.32181,-2.2113 -1.81512,-2.9918 -1.81511,-2.9919 -3.22835,-4.8935 -3.22835,-4.8936 -0.32764,-0.1257 -0.32765,-0.1258 -2.83997,1.0146 -2.83998,1.0146 -2.21135,1.1078 -2.21136,1.1078 -1.82111,1.1984 -1.82111,1.1984 -1.17072,0.8801 -1.17071,0.8801 -2.99183,2.5496 -2.99183,2.5496 -3.64968,3.7321 -3.64968,3.7322 -3.12208,3.5122 -3.12208,3.5121 -2.36647,2.7385 -2.36646,2.7385 -2.52342,2.3923 -2.52341,2.3924 -2.43621,1.8934 -2.43621,1.8935 -1.62078,2.8166 -1.62077,2.8165 -0.99879,2.482 -0.99879,2.4819 -0.49734,1.986 -0.49734,1.9859 -0.2698,1.8211 -0.26979,1.8211 -0.17941,3.0569 -0.17941,3.0569 h 47.25253 47.25253 z m -383.07628,-23.8132 -0.88399,-0.5941 -0.83987,-1.4012 -0.83988,-1.4012 -0.39588,-1.3618 -0.39588,-1.3618 v -0.4152 -0.4153 h 1.67879 1.67879 l 0.64969,0.296 0.64969,0.2961 0.27311,0.7834 0.27311,0.7834 v 2.6929 2.6928 h -0.48185 -0.48184 z m 0.31455,-24.5123 -1.14289,-0.3563 -0.93838,-0.9015 -0.93838,-0.9014 -1.64002,-1.0492 -1.64002,-1.0492 -0.30254,-0.1009 -0.30253,-0.1008 0.84049,-0.8918 0.84049,-0.8917 0.53991,-1.1057 0.53991,-1.1057 h 0.27129 0.27128 l 0.87623,0.5415 0.87622,0.5416 v 0.2941 0.2941 l -1.0876,1.1082 -1.0876,1.1082 0.47158,0.5211 0.47159,0.5211 1.07129,0.5076 1.0713,0.5076 1.99824,0.1782 1.99825,0.1783 0.16932,1.0022 0.16932,1.0022 -0.16669,0.2697 -0.16668,0.2697 -0.96025,-0.017 -0.96024,-0.017 z m 28.131422,-0.6342 -1.368796,-0.2193 -2.112233,-0.7353 -2.112233,-0.7352 -0.603841,-0.9188 -0.603841,-0.9188 -0.283726,-1.3008 -0.283727,-1.3008 -0.565402,-1.771 -0.565402,-1.771 -1.018677,-1.0086 -1.018677,-1.0086 -1.015971,-0.1716 -1.015972,-0.1716 -1.551568,0.18 -1.55156,0.1801 v -0.3065 -0.3065 l 1.49835,-1.4751 1.49834,-1.4751 0.90813,-0.4476 0.908126,-0.4476 4.292625,-2.0281 4.292624,-2.0281 1.499113,-0.9988 1.499113,-0.9989 0.907359,-1.06 0.907358,-1.0601 v -0.8665 -0.8666 l -0.52854,-1.1028 -0.528539,-1.1029 -0.34364,-0.4525 -0.343639,-0.4525 -0.940579,-0.393 -0.940578,-0.393 h -1.227013 -1.227012 l -1.187815,0.57 -1.187815,0.5701 -4.559889,4.4898 -4.559889,4.4899 -1.163606,0.5278 -1.16361,0.5278 -1.64135,0.01 -1.64135,0.01 0.14298,-0.2313 0.14297,-0.2314 0.7179,-0.1791 0.71789,-0.1791 1.36208,-1.0491 1.36208,-1.0492 0.953276,-1.3269 0.95327,-1.3269 0.48136,-1.3696 0.48136,-1.3695 v -1.6612 -1.6613 l -0.68051,-1.0119 -0.68051,-1.0119 -0.86029,-0.7177 -0.860286,-0.7178 -0.16696,-0.7602 -0.16696,-0.7601 -0.37668,-0.3126 -0.37667,-0.3127 -3.03269,-0.1338 -3.03268,-0.1338 -1.0005,1.1389 -1.0005,1.1389 0.97173,0.3364 0.97173,0.3364 0.72319,0.6929 0.72318,0.6928 v 0.7808 0.7807 l -0.57942,0.8456 -0.57942,0.8456 -1.11402,0.2806 -1.11402,0.2805 -0.71303,-0.171 -0.71303,-0.1709 -0.74519,-0.3758 -0.74519,-0.3758 -1.07592,-0.9794 -1.07593,-0.9794 -1.37353,-0.9349 -1.37353,-0.935 -1.16302,-0.1744 -1.16302,-0.1744 0.007,-0.2957 0.007,-0.2956 0.51554,-2.2114 0.51554,-2.2113 0.87989,-4.5528 0.8799,-4.5528 0.17125,-1.5609 0.17125,-1.561 -0.26751,-2.8617 -0.26752,-2.8618 -0.5223,-2.0813 -0.5223,-2.0812 -0.003,-0.1652 -0.003,-0.1651 1.37178,-0.1714 1.37178,-0.1714 1.10442,-0.874 1.10442,-0.8739 1.15882,-1.5212 1.15883,-1.5212 0.30938,-0.3902 0.30939,-0.3903 0.7488,-0.8035 0.7488,-0.8035 -0.63907,-1.2778 -0.63907,-1.2777 -0.39677,-1.561 -0.39678,-1.5609 -0.1731,-1.5754 -0.1731,-1.5755 0.30015,-1.9345 0.30015,-1.9345 0.61268,-1.0429 0.61269,-1.0428 1.27903,-1.2087 1.27904,-1.2087 1.4132,-0.8983 1.41319,-0.8984 1.82111,-0.7021 1.82111,-0.7021 1.029186,-0.4415 1.02918,-0.4414 1.36323,-1.331 1.363234,-1.3309 0.173002,-0.6893 0.173002,-0.6893 -0.664578,-0.8713 -0.664578,-0.8713 -0.949052,-0.4504 -0.94905,-0.4503 -1.21195,0.1211 -1.211946,0.1211 -3.11388,0.3508 -3.11387,0.3508 -1.69906,1.6569 -1.69906,1.657 -1.56096,0.7356 -1.56095,0.7357 -1.58534,0.1716 -1.58535,0.1717 -0.65915,-0.7834 -0.65916,-0.7833 -0.58681,-1.2122 -0.58681,-1.2122 0.15462,-1.4793 0.15462,-1.4794 1.0189,-2.9848 1.01891,-2.9849 0.31529,-1.355 0.31529,-1.355 0.0169,-1.1167 0.0169,-1.1167 -0.45818,-0.9104 -0.45818,-0.9104 -1.30193,-1.3382 -1.30193,-1.3381 0.53715,-2.5642 0.53716,-2.5642 0.39063,-2.7317 0.39063,-2.7317 0.29672,-3.252 0.29672,-3.252 0.2232,-13.9185 0.22321,-13.91849 0.17478,-0.91055 0.17478,-0.91056 0.23164,-0.29183 0.23164,-0.29184 0.84135,-0.1588 0.84135,-0.15879 1.87862,-0.38043 1.87862,-0.38044 2.80424,-0.17133 2.80424,-0.17132 3.03446,0.28853 3.034456,0.28853 2.81912,0.50819 2.81912,0.5082 2.86175,0.53322 2.86175,0.53322 3.461377,0.51796 3.461377,0.51796 h 1.594106 1.594105 l 2.302276,-0.29525 2.302275,-0.29526 0.106008,0.10601 0.106008,0.10601 0.405833,1.94532 0.405833,1.94532 2.13e-4,0.56125 2.13e-4,0.56125 -1.328932,1.19483 -1.328933,1.19479 h -0.228758 -0.228759 l -0.641319,-1.01589 -0.641319,-1.01591 -0.857859,-0.81988 -0.857859,-0.81988 -0.719001,-0.38408 -0.719,-0.38408 -1.19429,-0.22312 -1.194289,-0.22312 -1.598858,0.34122 -1.598857,0.34121 -0.910557,0.44713 -0.910557,0.44713 -2.116785,1.28145 -2.116785,1.28146 -1.525442,0.61116 -1.525442,0.6112 -0.566338,1.6482 -0.566339,1.6481 -0.01902,1.2607 -0.01902,1.2607 0.431112,0.7298 0.431111,0.7298 1.97536,0.592 1.97536,0.592 3.772307,-0.036 3.772306,-0.036 5.03563,-0.2205 5.03563,-0.2204 1.690139,0.2035 1.690139,0.2034 1.351034,0.6186 1.351034,0.6185 0.93303,0.8192 0.93303,0.8192 h 0.188377 0.188376 l 1.007929,-0.7983 1.00793,-0.7983 0.298686,-0.9969 0.298687,-0.9969 -0.184441,-1.23 -0.18444,-1.2299 -1.230001,-1.23 -1.23,-1.23 -1.35267,-0.4493 -1.352669,-0.4493 0.147451,-0.2386 0.147451,-0.2385 h 0.309845 0.309845 l 3.772307,-1.198 3.772306,-1.19793 3.512148,-1.14708 3.512147,-1.14708 1.884724,-0.95011 1.884723,-0.95011 1.520336,-1.49694 1.520336,-1.49694 0.627407,-1.44059 0.627406,-1.4406 0.520318,-0.0778 0.520318,-0.0778 49.2235318,0.0664 49.2235402,0.0664 0.41647,0.87764 0.41646,0.87764 0.5707,0.50376 0.5707,0.50376 1.04064,0.41427 1.04064,0.41427 2.08127,0.44363 2.08127,0.44362 1.82112,0.53426 1.82111,0.53427 0.91056,0.50246 0.91055,0.50246 0.58536,0.5403 0.58536,0.5403 v 0.76085 0.76085 l -0.42508,0.89578 -0.42508,0.89576 -1.78408,1.9104 -1.78407,1.9104 -1.13779,0.1706 -1.13778,0.1706 -0.47613,0.3482 -0.47612,0.3481 0.29794,1.6574 0.29794,1.6574 0.18,1.6556 0.18001,1.6555 1.56434,1.0111 1.56434,1.0111 h 0.77238 0.77239 l 1.0305,-1.1707 1.03051,-1.1707 h 0.20615 0.20615 l 0.16703,6.6991 0.16704,6.6991 0.1521,2.0162 0.1521,2.0162 -2.82379,9e-4 -2.82379,9e-4 -7.67469,0.3912 -7.67469,0.3912 -5.85358,0.3983 -5.85358,0.3984 -10.01612,0.9064 -10.01613,0.9063 -7.93485,0.7718 -7.9348502,0.7717 -2.47151996,0.2577 -2.47151004,0.2577 -4.81294,0.3985 -4.8129398,0.3986 -2.99183,0.2558 -2.99183,0.2559 -5.98366,0.3823 -5.983659,0.3824 -4.292625,0.1549 -4.292625,0.1549 -1.821113,0.1 -1.821114,0.1 -10.053027,0.015 -10.053027,0.015 -1.341886,1.2064 -1.341886,1.2065 -0.470783,0.9399 -0.470784,0.9398 -0.190788,1.1707 -0.190787,1.1707 -0.184189,5.4693 -0.184189,5.4692 -0.587362,1.2133 -0.587363,1.2133 -0.989805,0.8943 -0.989804,0.8942 -0.452552,0.2533 -0.452551,0.2532 1.044263,3.2267 1.044263,3.2267 0.526609,2.4716 0.52661,2.4715 0.435969,2.8617 0.435968,2.8618 0.003,6.5039 0.003,6.504 -0.566789,3.7723 -0.566789,3.7723 -0.786315,3.2187 -0.786315,3.2187 0.215418,0.1911 0.215419,0.1911 3.512147,0.6971 3.512148,0.6971 3.642227,0.7822 3.642227,0.7822 4.292624,0.893 4.292625,0.893 2.341432,0.5179 2.341432,0.5179 1.691034,0.311 1.691034,0.311 0.18192,0.1532 0.181921,0.1531 0.114026,1.0356 0.114026,1.0356 -0.225709,0.5937 -0.225709,0.5936 -2.073388,2.2012 -2.073388,2.2012 -0.171795,0.9158 -0.171794,0.9157 0.163545,0.6516 0.163544,0.6516 0.998403,0.6607 0.998403,0.6607 2.053634,-1.0242 2.053633,-1.0242 2.86175,-0.8014 2.86175,-0.8015 2.211352,-0.5261 2.211352,-0.5261 1.943455,-0.9526 1.943457,-0.9525 0.96544,-0.8933 0.96544,-0.8932 0.6849,-0.9884 0.6849,-0.9883 0.69883,-0.1221 0.69883,-0.1221 3.12191,-0.6991 3.1219,-0.6991 4.0324698,-0.6434 4.03247,-0.6434 1.95119004,-0.2596 1.95118996,-0.2596 4.29263,-0.3907 4.2926302,-0.3908 7.67469,-0.162 7.67469,-0.1619 5.98366,0.3144 5.98366,0.3145 3.64222,0.3869 3.64223,0.3868 4.29263,0.6581 4.29262,0.6581 0.58518,0.045 0.58517,0.045 1.8e-4,0.2431 1.9e-4,0.2431 -0.55376,1.1439 -0.55377,1.1439 0.17013,1.865 0.17012,1.865 0.15727,1.8795 0.15726,1.8795 -0.67461,1.3789 -0.67462,1.3788 0.24428,8.0586 0.24427,8.0586 0.0477,1.6366 0.0477,1.6367 -0.23646,0.215 -0.23647,0.2151 -2.86175,1.5048 -2.86175,1.5048 -3.96188,2.1719 -3.96188,2.1718 H 23.079458 6.9871578 l -30.0629398,-0.1729 -30.062935,-0.1729 -0.297338,-2.3636 -0.297338,-2.3637 -0.684945,-1.8211 -0.684945,-1.8211 -0.569336,-0.9106 -0.569335,-0.9105 -0.797494,-1.8211 -0.797494,-1.8212 -0.411102,-2.175 -0.411102,-2.1751 v -0.7239 -0.7239 l 0.411516,-0.1579 0.411517,-0.1579 h 0.392648 0.392649 l 1.537267,-1.0783 1.537266,-1.0784 -0.0067,-0.1574 -0.0067,-0.1574 -1.229048,-0.8284 -1.229047,-0.8284 -1.430875,-0.5189 -1.430875,-0.5189 -1.870948,-0.2787 -1.870947,-0.2787 h -1.807681 -1.807681 l -2.43511,0.5063 -2.435109,0.5063 -1.534851,0.5337 -1.534851,0.5337 -1.67387,0.9361 -1.673871,0.9361 -1.018864,1.5764 -1.018863,1.5764 v 0.4587 0.4587 l -0.157914,0.4115 -0.157914,0.4115 h 2.12279 2.12279 l 1.87247,0.4201 1.87247,0.4201 1.430875,0.6658 1.430875,0.6659 1.704944,1.7107 1.704944,1.7108 2.414024,4.813 2.414024,4.8129 0.520074,0.8455 0.520074,0.8456 h -0.398651 -0.398652 l -1.26283,-0.2709 -1.262829,-0.2708 -4.538515,0.4045 -4.538516,0.4045 -4.943022,0.1137 -4.943022,0.1136 z"
       id="path1-5-1" /></g></svg>
