<?xml version="1.0" encoding="UTF-8" standalone="no"?>
<!-- Created with Inkscape (http://www.inkscape.org/) -->

<svg
   width="497.62274mm"
   height="283.01834mm"
   viewBox="0 0 497.62274 283.01834"
   version="1.1"
   id="svg1"
   xml:space="preserve"
   xmlns:inkscape="http://www.inkscape.org/namespaces/inkscape"
   xmlns:sodipodi="http://sodipodi.sourceforge.net/DTD/sodipodi-0.dtd"
   xmlns="http://www.w3.org/2000/svg"
   xmlns:svg="http://www.w3.org/2000/svg"><sodipodi:namedview
     id="namedview1"
     pagecolor="#ffffff"
     bordercolor="#000000"
     borderopacity="0.25"
     inkscape:showpageshadow="2"
     inkscape:pageopacity="0.0"
     inkscape:pagecheckerboard="0"
     inkscape:deskcolor="#d1d1d1"
     inkscape:document-units="mm"><inkscape:page
       x="0"
       y="0"
       width="497.62274"
       height="283.01834"
       id="page2"
       margin="0"
       bleed="0" /></sodipodi:namedview><defs
     id="defs1" /><g
     inkscape:label="Calque 1"
     inkscape:groupmode="layer"
     id="layer1"
     transform="translate(114.97984,-374.44777)"><path
       style="fill:#958673;fill-opacity:1"
       d="M 105.35682,642.6373 V 627.80824 H 21.57744 -62.201948 l -0.09334,0.3252 -0.09334,0.32519 -0.281056,5.33432 -0.281056,5.33432 -0.402726,2.99077 -0.402725,2.99078 -0.661001,3.90238 -0.661,3.90239 -0.442082,2.08127 -0.442081,2.08127 -6.501761,-0.0234 -6.501761,-0.0234 -3.512147,-0.45796 -3.512148,-0.45795 -1.560954,-0.53033 -1.560955,-0.53032 -1.300795,-0.65034 -1.300796,-0.65034 -1.86998,-1.40573 -1.86998,-1.40573 -1.30475,-1.4276 -1.30474,-1.4276 -4.239808,-0.52184 -4.23981,-0.52184 -4.15315,-0.52349 -4.15316,-0.52349 -0.0654,-0.0654 -0.0654,-0.0654 0.65428,-1.61982 0.65427,-1.61982 0.529,-2.40004 0.529,-2.40003 -0.18033,-11.70716 -0.18033,-11.70716 0.43283,-3.12191 0.43283,-3.12191 0.3945,-1.53877 0.39451,-1.53878 0.77963,-1.59898 0.77964,-1.59899 1.4147,-1.58817 1.4147,-1.58818 -0.97681,-0.59869 -0.97681,-0.5987 -1.00099,-0.91919 -1.00099,-0.91918 -0.8567,-1.17072 -0.85669,-1.17071 -0.66762,-1.59144 -0.66762,-1.59143 -0.26668,-1.65598 -0.26669,-1.65599 0.32048,-0.31139 0.32048,-0.31139 2.47151,-0.94127 2.47151,-0.94126 2.60159,-0.93115 2.60159,-0.93116 0.84931,-0.6336 0.84931,-0.63361 0.63439,-1.2519 0.63439,-1.25191 0.27237,-2.17224 0.27238,-2.17225 v -2.39173 -2.39172 l 0.494858,-1.15448 0.49487,-1.15447 2.26788,-1.36492 2.26788,-1.36492 1.79448,-0.91164 1.794469,-0.91164 0.385803,-0.55081 0.385803,-0.55081 -0.0025,-0.65755 -0.0025,-0.65755 -0.653322,-1.40347 -0.653322,-1.40346 -0.872166,-1.19813 -0.872162,-1.19812 -0.19288,-0.62425 -0.19288,-0.62424 1.00547,0.22414 1.00547,0.22414 2.731671,0.01 2.73167,0.01 1.430875,-0.6726 1.430875,-0.67261 2.341431,-1.88942 2.341432,-1.88942 2.081273,-1.89062 2.081272,-1.89062 0.816904,-0.68455 0.816904,-0.68454 1.524528,-0.75101 1.524528,-0.75101 0.808764,-0.1731 0.808765,-0.17309 1.051059,0.42055 1.051058,0.42055 1.132006,1.22294 1.132006,1.22294 0.876733,1.28275 0.876732,1.28275 -0.434662,4.82609 -0.434662,4.82609 -0.22478,6.08108 -0.22478,6.08109 0.223397,7.70735 0.223398,7.70734 0.174611,4.61783 0.174611,4.61782 H 21.355386 105.35682 V 484.4778 374.44774 l 2.27639,0.0478 2.27639,0.0478 0.0654,109.98225 0.0653,109.98226 h 12.87757 12.87757 v -0.97048 -0.97048 l 0.38699,-7.67981 0.38699,-7.67981 0.53018,-10.53644 0.53018,-10.53645 0.37638,-7.41453 0.37639,-7.41453 0.14076,-1.69104 0.14076,-1.69103 0.38754,-9.36573 0.38754,-9.36573 0.38749,-12.22748 0.3875,-12.22747 0.002,-10.92902 0.002,-10.92902 -0.39279,-7.93251 -0.39279,-7.93252 -0.38367,-4.68286 -0.38366,-4.68287 -0.42778,-4.3208 -0.42778,-4.3208 2.40287,-9.79283 2.40286,-9.79283 0.1672,0.009 0.16721,0.009 4.68286,3.62384 4.68286,3.62383 0.70927,-0.81865 0.70926,-0.81865 0.57588,-1.18794 0.57589,-1.18793 0.17136,-6.50398 0.17136,-6.50398 0.44894,-1.69103 0.44893,-1.69104 0.65391,-1.12586 0.6539,-1.12586 1.19885,-0.76029 1.19885,-0.76029 h 0.32237 0.32237 l 0.68369,-0.25994 0.68369,-0.25994 -0.7114,-1.30708 -0.7114,-1.30708 -0.89568,-0.92225 -0.89568,-0.92225 -0.63756,-0.2424 -0.63757,-0.2424 h -1.53492 -1.53493 l -1.24485,0.41719 -1.24485,0.4172 -3.38206,1.64967 -3.38207,1.64967 -1.01224,0.40668 -1.01223,0.40668 -1.39424,0.16386 -1.39423,0.16387 V 388.62777 374.9336 h 13.28979 13.28979 l -0.0867,0.24613 -0.0867,0.24614 -3.38207,2.75422 -3.38206,2.75423 -2.39003,1.87762 -2.39002,1.87762 -0.0165,0.13596 -0.0164,0.13596 0.84552,0.45559 0.84552,0.45559 2.414,2.41491 2.414,2.41492 1.47826,0.89592 1.47827,0.89593 h 1.83123 1.83124 l 0.65039,-0.1884 0.6504,-0.1884 0.67451,-0.59208 0.6745,-0.59208 0.66941,-1.06578 0.6694,-1.06577 0.17418,-1.27566 0.17417,-1.27565 0.5148,-3.12191 0.5148,-3.12191 0.4049,-1.23996 0.40491,-1.23996 0.74403,-1.0271 0.74403,-1.0271 0.82514,-0.4267 0.82514,-0.42669 1.77681,0.1004 1.7768,0.1004 0.32998,0.32997 0.32997,0.32997 -0.0105,4.0845 -0.0105,4.0845 -0.72011,3.38206 -0.7201,3.38207 -0.6157,2.34143 -0.6157,2.34144 -0.70518,3.51214 -0.70518,3.51215 -0.0139,2.73167 -0.0139,2.73167 0.61496,2.04186 0.61497,2.04186 0.3787,0.14532 0.3787,0.14533 0.82955,-0.44675 0.82955,-0.44674 1.15272,-1.55077 1.15271,-1.55077 1.23576,-0.57839 1.23575,-0.57838 0.003,-1.30232 0.003,-1.30232 -0.30633,-2.47497 -0.30632,-2.47497 0.181,-0.72118 0.18101,-0.72118 0.70817,-0.27745 0.70817,-0.27746 0.75762,-0.0385 0.75763,-0.0385 0.34426,1.3008 0.34426,1.3008 0.41782,2.21135 0.41782,2.21135 0.2471,1.3008 0.24709,1.30079 0.22459,2.99183 0.22459,2.99183 -0.22357,3.79382 -0.22358,3.79381 -0.50661,2.31992 -0.50661,2.31993 -0.54051,1.53696 -0.5405,1.53696 -1.06935,1.79998 -1.06934,1.79998 0.0885,0.08 0.0885,0.08 4.55278,2.35374 4.55279,2.35374 0.0787,1.62692 0.0787,1.62692 -0.39783,3.4477 -0.39783,3.44769 -1.5857,6.71543 -1.58569,6.71543 -0.89189,5.33312 -0.89188,5.33311 v 3.6492 3.6492 l 0.27056,2.20452 0.27056,2.20453 0.66519,2.21135 0.66518,2.21135 0.9224,1.69104 0.9224,1.69103 1.11714,1.56096 1.11715,1.56095 1.01742,1.14876 1.01742,1.14876 2.65517,-1.98017 2.65517,-1.98018 6.55519,-4.09183 6.55519,-4.09182 0.13008,-0.14986 0.13008,-0.14986 1.3008,-0.89616 1.30079,-0.89615 2.34144,-1.87075 2.34143,-1.87076 2.11176,-2.07339 2.11176,-2.0734 1.43896,-1.92383 1.43895,-1.92384 1.14106,-2.08127 1.14105,-2.08127 0.34785,-0.84552 0.34786,-0.84551 h 0.22859 0.2286 l 0.002,0.58536 0.002,0.58535 0.79031,1.37811 0.79031,1.37811 1.05405,1.05405 1.05406,1.05405 1.73038,0.81171 1.73038,0.8117 1.82385,-0.0144 1.82384,-0.0144 0.55653,-0.29785 0.55654,-0.29785 0.41633,-1.22187 0.41633,-1.22187 v -0.85744 -0.85744 l -0.75764,-1.89292 -0.75765,-1.89293 -1.35537,-2.86175 -1.35538,-2.86175 -0.35659,-1.00292 -0.35659,-1.00292 0.14933,-0.68811 0.14932,-0.68812 0.28842,-0.78047 0.28842,-0.78048 2.73061,-3.90239 2.73061,-3.90239 2.0864,-2.73167 2.08639,-2.73167 1.42419,-1.69103 1.42419,-1.69103 2.61985,-2.6047 2.61985,-2.6047 1.95119,-1.57008 1.95119,-1.57008 2.05741,-1.3877 2.0574,-1.38769 2.75554,-1.36716 2.75554,-1.36716 1.86352,-0.66626 1.86353,-0.66627 2.7675,-0.53407 2.76751,-0.53408 h 1.7097 1.70971 l 3.15507,-2.39724 3.15507,-2.39724 0.34378,-0.33443 0.34378,-0.33443 0.17654,-0.006 0.17654,-0.006 1.00432,-0.90452 1.00432,-0.90452 h 0.23144 0.23143 v 0.21984 0.21984 l -0.52032,0.47088 -0.52032,0.47088 v 0.34076 0.34077 l 0.58536,0.30046 0.58536,0.30047 1.20347,0.99775 1.20347,0.99774 1.16823,-1.09394 1.16823,-1.09394 0.7027,-1.22349 0.7027,-1.22348 0.14864,-1.44023 0.14865,-1.44022 -0.59094,-1.75899 -0.59094,-1.759 -1.30453,-1.95119 -1.30452,-1.95119 -0.84093,-1.04064 -0.84094,-1.04064 -0.55168,-1.09531 -0.55169,-1.09531 v -0.36415 -0.36415 l 1.80862,-2.70309 1.80862,-2.70308 2.15881,-2.21173 2.1588,-2.21173 2.58186,-1.9272 2.58186,-1.92719 2.88148,-1.47906 2.88148,-1.47905 1.95119,-0.6877 1.9512,-0.68769 2.73167,-0.63219 2.73167,-0.6322 2.79632,-0.31935 2.79631,-0.31935 3.83774,0.15723 3.83774,0.15723 2.24205,0.51213 2.24205,0.51214 2.26222,0.69002 2.26222,0.69002 0.87931,1.37457 0.8793,1.37458 0.79644,0.67016 0.79644,0.67016 1.19394,0.17904 1.19393,0.17904 1.73162,-0.13295 1.73162,-0.13296 2.41723,-0.8131 2.41723,-0.81309 1.72759,-0.78333 1.72759,-0.78333 1.48615,-0.3851 1.48615,-0.3851 h 0.82613 0.82613 l 1.08751,0.7512 1.08751,0.75119 0.76379,0.86177 0.76379,0.86177 0.36744,1.05367 0.36745,1.05366 0.12776,3.64223 0.12776,3.64223 -1.25899,1.69701 -1.259,1.69701 -2.07414,2.59562 -2.07415,2.59561 -4.11673,4.16254 -4.11673,4.16255 -1.31889,1.04064 -1.31889,1.04063 -0.58689,0.54206 -0.58689,0.54206 -2.43978,1.82682 -2.43979,1.82683 -2.21135,1.43449 -2.21136,1.4345 -2.70479,1.49703 -2.70479,1.49704 -1.97807,0.90429 -1.97807,0.9043 -2.91663,1.14307 -2.91663,1.14306 -1.18088,0.31584 -1.18087,0.31584 v 0.4135 0.41351 l 1.0527,3.10972 1.0527,3.10972 -0.13954,0.73492 -0.13953,0.73492 -0.93932,1.99675 -0.93932,1.99676 -1.67562,2.53151 -1.67561,2.53152 -2.02504,2.02127 -2.02504,2.02126 -2.45197,1.9782 -2.45197,1.97819 -1.69103,1.19416 -1.69104,1.19417 -3.51215,2.20456 -3.51214,2.20456 -6.33461,3.27481 -6.3346,3.27482 -1.60025,1.10224 -1.60025,1.10224 -1.69103,1.33603 -1.69104,1.33603 -1.95119,2.07394 -1.95119,2.07393 -0.82478,1.17141 -0.82479,1.17141 -1.19247,2.31484 -1.19248,2.31483 -0.57455,2.08128 -0.57456,2.08127 -0.01,5.16056 -0.01,5.16057 -0.69178,0.59515 -0.69178,0.59514 -0.44325,0.85715 -0.44325,0.85715 0.14733,1.06183 0.14734,1.06183 0.80637,2.6016 0.80638,2.60159 0.38127,1.79607 0.38128,1.79607 -0.17235,0.54536 -0.17235,0.54536 -0.64384,0.84552 -0.64384,0.84551 -0.4244,0.008 -0.42441,0.008 0.77014,0.57362 0.77013,0.57362 1.14888,1.14888 1.14888,1.14887 1.26557,0.85167 1.26556,0.85166 1.38797,0.31061 1.38797,0.31062 1.38681,-0.29742 1.38681,-0.29742 0.35577,-0.44928 0.35577,-0.44929 0.62386,-1.18711 0.62386,-1.1871 0.3011,-1.6605 0.30111,-1.6605 0.52427,-1.02766 0.52427,-1.02766 0.61663,-0.66501 0.61663,-0.66501 0.9387,2.06877 0.9387,2.06876 2.41943,4.81294 2.41943,4.81294 0.55116,0.91056 0.55115,0.91056 0.17009,0.39024 0.17009,0.39023 2.97694,5.20319 2.97694,5.20318 1.86327,2.99926 1.86327,2.99926 4.45067,6.62663 4.45066,6.62662 1.85533,2.73167 1.85533,2.73167 0.32806,0.49076 0.32806,0.49076 1.04064,1.4648 1.04064,1.46479 2.29015,3.37771 2.29016,3.37771 2.43794,3.51214 2.43794,3.51215 1.53026,2.21135 1.53027,2.21136 2.05409,2.99183 2.05409,2.99183 1.52538,2.21135 1.52537,2.21135 4.60294,6.89422 4.60294,6.89421 2.69319,4.16255 2.69318,4.16254 0.58343,0.91056 0.58343,0.91056 1.17116,1.82111 1.17115,1.82111 2.01915,3.25199 2.01914,3.25199 0.64716,1.23463 0.64715,1.23462 0.27368,-0.16914 0.27369,-0.16915 -0.17709,0.28654 -0.1771,0.28654 1.44462,2.55037 1.44461,2.55037 3.47138,7.02429 3.47137,7.0243 0.60741,1.56095 0.6074,1.56096 0.18171,0.26015 0.18171,0.26016 1.17432,2.92679 1.17433,2.92679 h -32.30657 -32.30656 l -1.81769,-2.40647 -1.81768,-2.40647 -0.1367,-0.13008 -0.13669,-0.13008 -1.31253,-1.82111 -1.31252,-1.82112 -1.20728,-1.72341 -1.20727,-1.72341 -2.0465,-3.08953 -2.04651,-3.08953 -1.69706,-2.73167 -1.69706,-2.73167 -1.6649,-2.92621 -1.6649,-2.92621 -54.77606,-5.8e-4 -54.77606,-5.8e-4 0.2271,2.27639 0.22711,2.27639 -0.11284,5.46334 -0.11283,5.46334 -0.54628,2.63154 -0.54629,2.63153 -0.51997,1.94033 -0.51997,1.94033 -0.26475,0.69636 -0.26476,0.69636 h -0.12609 -0.1261 l -1.17629,-1.25756 -1.1763,-1.25755 -0.9951,-0.32842 -0.9951,-0.32841 -1.26311,0.59373 -1.26311,0.59373 -2.93519,2.81335 -2.93518,2.81335 h -1.06563 -1.06563 l -0.99289,-0.50653 -0.99289,-0.50653 -0.14238,-1.5097 -0.14239,-1.5097 -0.51953,-1.17072 -0.51954,-1.17071 -0.94471,-0.95359 -0.94471,-0.95359 -1.79587,-1.22707 -1.79587,-1.22706 -0.36621,0.14053 -0.36621,0.14053 -0.47094,0.99243 -0.47094,0.99244 0.24019,2.32166 0.2402,2.32166 -0.3111,0.90492 -0.31109,0.90492 -0.8265,0.85273 -0.82649,0.85272 -0.68421,0.1308 -0.6842,0.13079 -0.65507,-0.34566 -0.65507,-0.34566 -1.43088,-1.47382 -1.43087,-1.47382 -1.59399,-1.14781 -1.594,-1.14782 h -0.12524 -0.12525 l -0.97774,1.47259 -0.97774,1.47258 -0.13399,0.99893 -0.13398,0.99893 h -4.90877 -4.90877 v -0.39766 -0.39766 l 0.76734,-1.52008 0.76734,-1.52009 1.57221,-2.08648 1.57221,-2.08648 1.70255,-1.50401 1.70255,-1.504 1.60374,-1.16695 1.60374,-1.16696 2.22397,-1.341 2.22398,-1.341 1.49147,-0.63411 1.49148,-0.6341 0.004,-0.19512 0.004,-0.19512 h -0.2707 -0.27069 l -0.79419,-0.58536 -0.7942,-0.58536 -0.85223,-1.17071 -0.85223,-1.17072 -1.38103,-2.73167 -1.38103,-2.73167 -0.6075,-0.9756 -0.6075,-0.97559 h -6.63079 -6.6308 l -0.0456,7.73973 -0.0456,7.73973 -0.18185,-3.7723 -0.18184,-3.77231 -0.0327,-3.96743 -0.0327,-3.96742 h -12.48763 -12.48764 v 14.82906 14.82907 h -2.34143 -2.34143 z m -52.278633,-17.44749 0.837534,-1.05747 0.283489,0.28349 0.283489,0.28348 -0.318685,0.5103 -0.318684,0.51029 v 0.26369 0.26369 l 1.235756,-0.004 1.235755,-0.004 0.334727,-0.21237 0.334727,-0.21238 -0.496497,-1.15828 -0.496498,-1.15829 -0.952958,-0.8367 -0.952958,-0.83671 h -1.173489 -1.173488 l -0.573533,0.60174 -0.573532,0.60175 -0.466564,0.86987 -0.466564,0.86988 -0.301075,-0.30108 -0.301076,-0.30107 0.312361,-0.86382 0.312361,-0.86382 v -0.17665 -0.17664 h -0.384241 -0.384242 l -0.41866,0.63895 -0.418661,0.63896 0.156748,0.25362 0.156748,0.25363 -0.306536,0.18945 -0.306536,0.18945 -0.478185,-0.59054 -0.478185,-0.59053 v -0.23134 -0.23134 h 0.492484 0.492484 l 0.157914,-0.41151 0.157913,-0.41152 v -0.36995 -0.36995 l -0.820346,0.066 -0.820347,0.066 -0.181918,-0.6504 -0.181918,-0.6504 -0.677382,-0.99512 -0.677382,-0.99512 -0.587684,-1.47639 -0.587683,-1.47639 -0.0091,-2.99183 -0.0091,-2.99183 0.465672,-1.50667 0.465673,-1.50667 0.923435,-1.02213 0.923435,-1.02213 1.472642,-0.72319 1.472642,-0.72319 h 3.382068 3.382068 l 1.073992,0.57449 1.073992,0.57448 1.051716,1.19481 1.051715,1.19481 0.996201,2.32441 0.996202,2.32441 0.506843,0.16778 0.506843,0.16778 -0.571883,0.46308 -0.571883,0.46308 v 1.02325 1.02325 l -0.519624,1.53664 -0.519625,1.53664 -0.547269,0.9927 -0.54727,0.9927 0.147184,0.14718 0.147184,0.14719 -0.240488,0.44936 -0.240488,0.44935 -1.246273,0.33691 -1.246274,0.33692 -0.446994,0.22488 -0.446994,0.22488 0.779524,2.14159 0.779524,2.14159 0.117321,0.33234 0.117321,0.33233 1.306223,-0.66192 1.306223,-0.66191 v -0.25578 -0.25577 h 0.664815 0.664816 l 0.533405,-1.28352 0.533405,-1.28351 0.349416,-0.13409 0.349416,-0.13408 0.160929,0.50704 0.160929,0.50704 h 0.241878 0.241878 l 1.033402,-0.93361 1.033401,-0.93362 0.630485,-1.34277 0.63048,-1.34278 0.26886,-1.43088 0.26886,-1.43087 0.15352,-1.7268 0.15353,-1.72681 -0.65894,-0.16538 -0.65894,-0.16539 0.56958,-0.98966 0.56957,-0.98966 -0.53798,-1.15062 -0.53799,-1.15061 -0.13407,-1.11648 -0.13406,-1.11647 -1.128987,-1.46425 -1.128983,-1.46425 -1.170716,-0.85814 -1.170716,-0.85814 -2.985113,-1.35558 -2.985114,-1.35558 -4.169261,0.004 -4.169261,0.004 -2.035621,0.55679 -2.03562,0.5568 -1.346448,0.72112 -1.346447,0.72112 -1.311308,1.3008 -1.311309,1.30079 -0.937681,1.69104 -0.937681,1.69103 -0.568301,1.82112 -0.568301,1.82111 0.01304,2.25375 0.01304,2.25375 0.554441,1.38848 0.55444,1.38847 0.377785,1.02032 0.377784,1.02031 0.523908,0.73576 0.523908,0.73576 h 0.48612 0.486119 l 0.08152,0.83909 0.08152,0.83909 1.040636,0.5875 1.040636,0.58751 0.306616,0.004 0.306616,0.004 0.390239,-0.39024 0.390238,-0.39024 h 0.166194 0.166194 l -0.141672,0.45528 -0.141672,0.45528 0.198283,0.31509 0.198283,0.31508 1.291693,0.57855 1.291692,0.57856 1.560955,0.45366 1.560954,0.45366 1.213895,0.0185 1.213895,0.0185 z m -154.006777,0.53715 h 0.73617 l 0.18266,-0.97367 0.182667,-0.97366 -0.349917,-4.55472 -0.34992,-4.55471 0.0503,-2.99183 0.0503,-2.99183 0.20767,-1.82111 0.20767,-1.82111 0.400327,0.91055 0.40034,0.91056 0.3361,1.43087 0.3361,1.43088 0.36006,0.71167 0.36006,0.71167 0.62116,0.1559 0.62116,0.1559 0.73994,-0.47365 0.73994,-0.47364 -0.84551,0.98096 -0.84552,0.98096 v 0.92321 0.9232 l 0.79906,1.99454 0.79905,1.99453 0.0555,0.78048 0.0555,0.78047 0.68704,1.17072 0.68705,1.17072 0.17428,0.95356 0.17428,0.95356 0.56053,0.51963 0.560542,0.51963 2.99183,0.0878 2.991829,0.0878 0.598445,-1.79139 0.598445,-1.7914 0.134858,-1.72075 0.134857,-1.72075 0.48174,-1.43088 0.481741,-1.43087 0.812376,-3.64223 0.812377,-3.64223 0.660576,-2.01623 0.660576,-2.01623 h 0.09384 0.09384 l 0.984842,0.58107 0.984842,0.58107 -0.734401,0.25828 -0.734401,0.25827 0.161926,2.86792 0.161926,2.86792 0.287806,3.18695 0.287806,3.18695 h 0.3275 0.327499 l 0.143299,0.37343 0.143299,0.37343 -0.310584,0.10458 -0.310584,0.10458 0.347596,0.42115 0.347596,0.42115 -0.167831,0.27156 -0.16783,0.27155 h -0.374885 -0.374885 v 2.74109 2.7411 l 2.515463,-0.0745 2.515462,-0.0745 0.102721,-0.30993 0.102722,-0.30994 -0.79707,-0.41218 -0.797071,-0.41218 v -0.19739 -0.19738 l 0.780478,-0.46104 0.780477,-0.46104 v -0.2305 -0.23049 l -1.085456,-0.08 -1.085457,-0.08 -0.111067,-0.33759 -0.111068,-0.33758 1.288394,0.17091 1.288394,0.17091 0.168289,-0.84144 0.168289,-0.84145 -0.0022,-1.72355 -0.0022,-1.72356 -0.382999,-2.86175 -0.382998,-2.86175 -0.0027,-1.43087 -0.0027,-1.43088 -0.8225,-0.67608 -0.822501,-0.67608 0.185546,-0.30022 0.185547,-0.30022 0.526811,0.28194 0.526811,0.28195 0.143658,-0.14366 0.143658,-0.14366 0.12563,-2.41397 0.125631,-2.41397 -0.418208,-0.99913 -0.418208,-0.99913 0.276751,-0.51712 0.27675,-0.51711 -0.12679,-0.33041 -0.126791,-0.33041 -1.649316,-0.17894 -1.649317,-0.17893 -2.772991,-0.24987 -2.772991,-0.24986 -0.391441,-0.15021 -0.391441,-0.15021 0.04928,2.00252 0.04928,2.00252 -0.657154,0.28777 -0.657155,0.28777 -0.191135,0.26545 -0.191136,0.26546 -0.0058,0.65039 -0.0058,0.6504 -0.662324,1.95119 -0.662323,1.9512 -0.153293,1.17071 -0.153293,1.17072 -0.459682,0.91881 -0.459683,0.91881 -0.273812,1.48119 -0.273811,1.48118 -0.398419,0.77046 -0.398418,0.77045 -0.25093,0.15509 -0.250929,0.15508 -0.425245,-0.82233 -0.425244,-0.82233 -0.373183,-1.25665 -0.373184,-1.25665 -0.448407,0.14382 -0.448412,0.14382 0.373075,-0.2646 0.373072,-0.2646 -0.717437,-1.08413 -0.71745,-1.08412 -0.63122,0.15842 -0.63123,0.15843 v -0.20472 -0.20473 l 0.6504,-0.95714 0.6504,-0.95715 v -0.54228 -0.54229 l -0.36682,-0.14076 -0.36681,-0.14076 -0.29583,-1.69879 -0.29583,-1.69878 -0.63329,-1.68248 -0.63328,-1.68248 -0.53769,-0.75512 -0.53769,-0.75512 -4.215084,0.0598 -4.21508,0.0598 -0.47165,0.27755 -0.47165,0.27754 0.0201,7.0048 0.0201,7.00479 0.15892,1.59312 0.15891,1.59313 0.48776,-0.12755 0.48776,-0.12756 v 0.19678 0.19679 l -0.45528,0.33348 -0.45528,0.33349 v 4.29164 4.29164 l 0.20605,0.20575 0.20606,0.20575 1.22482,0.18005 1.22482,0.18004 0.74796,-0.10426 0.74796,-0.10426 z m 207.36304,-0.4131 0.21242,-0.13128 0.51477,0.2755 0.51476,0.2755 0.27109,-0.50652 0.27108,-0.50653 v -1.56112 -1.56112 l -0.25046,-0.65877 -0.25047,-0.65877 0.38055,-0.91076 0.38054,-0.91077 v -0.52867 -0.52868 h -1.40205 -1.40205 l -0.61418,-0.51166 -0.61418,-0.51166 0.57311,-0.009 0.57312,-0.009 0.64346,0.29317 0.64345,0.29318 0.66958,-0.16805 0.66958,-0.16806 v -2.99602 -2.99603 l 0.41892,-0.63935 0.41891,-0.63935 -0.1581,-0.62994 -0.15811,-0.62994 -0.76627,0.28923 -0.76627,0.28924 -1.27723,-0.59822 -1.27723,-0.59822 -0.48229,0.0929 -0.4823,0.0929 -0.18059,0.64903 -0.18059,0.64903 -0.0259,1.8708 -0.0259,1.8708 -0.25915,0.16017 -0.25916,0.16016 0.064,0.82069 0.064,0.8207 -0.43797,0.0909 -0.43797,0.0909 -0.81979,-0.85784 -0.81979,-0.85783 -1.038007,-2.21478 -1.03801,-2.21478 -0.82614,-1.66416 -0.82613,-1.66416 -1.12622,-1.13255 -1.12621,-1.13255 h -0.34238 -0.34237 l -0.13622,-0.97559 -0.13622,-0.9756 -0.23819,-1.06069 -0.23818,-1.06068 -0.18422,-0.29808 -0.18423,-0.29808 -1.02768,-0.27673 -1.02768,-0.27672 -2.31866,0.17503 -2.31866,0.17504 -0.28304,1.98077 -0.28303,1.98078 -0.26762,2.47151 -0.26761,2.47151 -0.0658,6.11374 -0.0658,6.11374 -0.44401,0.87571 -0.44401,0.87572 0.45041,0.55516 0.4504,0.55516 1.3008,-0.0667 1.30079,-0.0667 -0.45528,0.27476 -0.45528,0.27476 v 0.37731 0.37731 h -0.37488 -0.37489 l -0.18374,-0.2973 -0.18374,-0.2973 -0.36598,0.6985 -0.36598,0.6985 0.16147,0.50875 0.16147,0.50876 0.56802,0.12336 0.56802,0.12336 0.39023,0.0382 0.39024,0.0381 1.52348,-0.0308 1.52348,-0.0308 -0.0562,-3.70726 -0.0562,-3.70727 0.41349,-1.69103 0.41348,-1.69104 0.005,-2.13096 0.005,-2.13096 -0.26016,-0.16078 -0.26016,-0.16079 v -0.24481 -0.2448 h 0.3599 0.3599 l 0.15454,-0.58536 0.15454,-0.58536 0.86489,1.3008 0.86488,1.30079 1.74668,2.51344 1.74668,2.51344 0.61603,1.39295 0.61603,1.39294 1.20146,1.10747 1.20146,1.10747 0.657307,0.29949 0.65731,0.29949 -0.30213,0.18673 -0.30212,0.18672 0.42482,0.60652 0.42482,0.60652 v 0.54048 0.54047 l 0.31219,0.3122 0.3122,0.31219 h 0.46828 0.46829 l 0.49774,0.49773 0.49773,0.49774 1.10559,-0.24841 1.10558,-0.2484 z m -155.140833,0.0979 0.315185,-0.31519 1.037642,0.0749 1.037642,0.0749 v -0.30098 -0.30098 l -1.040636,-0.40877 -1.040637,-0.40878 v -0.39533 -0.39533 l 0.43056,-0.47576 0.43056,-0.47576 h 0.848958 0.848958 l 0.411516,-0.15792 0.411516,-0.15791 v -0.96077 -0.96077 l -0.269826,-0.26983 -0.269827,-0.26983 0.269827,-0.70969 0.269826,-0.7097 v -1.65374 -1.65374 l 1.113406,-1.64635 1.113405,-1.64636 3.355338,-4.81294 3.355338,-4.81294 1.124677,-1.54797 1.124677,-1.54797 v -0.20811 -0.2081 h -2.972889 -2.972889 l -0.799418,0.96983 -0.799418,0.96983 v 0.35953 0.35953 l -1.235755,1.35934 -1.235756,1.35935 -1.197738,1.79904 -1.197738,1.79904 -0.428256,0.70628 -0.428256,0.70629 -0.482113,0.25802 -0.482114,0.25801 -1.209202,-1.76972 -1.209201,-1.76973 -2.66635,-3.18495 -2.666349,-3.18494 -2.585419,-0.10916 -2.585418,-0.10916 -0.471451,0.14964 -0.471451,0.14963 v 0.36355 0.36356 l 0.52067,0.27865 0.520669,0.27865 0.630677,1.24459 0.630678,1.24458 2.178135,2.72779 2.178136,2.72779 0.576942,0.93351 0.576943,0.93351 0.886326,0.67604 0.886327,0.67603 0.735629,1.49808 0.735629,1.49807 0.202577,4.03247 0.202576,4.03246 -0.0083,1.49592 -0.0083,1.49591 h 0.729284 0.729285 z m 2.260389,-16.85532 0.160788,-0.26016 h 0.114725 0.114726 v 0.26016 0.26016 h -0.275513 -0.275513 z m 63.142497,16.41249 1.484796,-0.57185 1.908435,-1.24584 1.908434,-1.24584 0.796711,-1.01602 0.796711,-1.01602 0.271714,-0.52031 0.271714,-0.52032 0.09113,-0.91056 0.09113,-0.91056 -1.691034,-0.56251 -1.691034,-0.56251 -1.170716,-0.16865 -1.170716,-0.16865 -0.890332,1.6674 -0.890332,1.66739 -0.884326,0.60595 -0.884325,0.60595 -1.347251,0.46556 -1.347251,0.46555 -2.024589,0.008 -2.0245891,0.008 -0.96724,-0.40404 -0.967241,-0.40404 -0.741415,-0.70164 -0.741416,-0.70163 -0.710575,-1.04064 -0.710574,-1.04064 -0.369124,-2.34143 -0.369123,-2.34143 0.01999,-2.21965 0.01999,-2.21966 0.657162,-1.43543 0.657163,-1.43543 1.058236,-0.83814 1.058235,-0.83814 1.126359,-0.49334 1.126359,-0.49333 1.170716,-0.16555 1.1707161,-0.16555 2.035543,0.39537 2.035542,0.39536 1.071115,0.5942 1.071114,0.5942 0.680903,1.17072 0.680902,1.17071 0.715393,0.0838 0.715392,0.0838 1.596262,-0.53907 1.596262,-0.53907 h 0.599882 0.599882 v -0.52315 -0.52315 l -0.551831,-1.17397 -0.551832,-1.17398 -1.463947,-1.28411 -1.463946,-1.28411 -1.406062,-0.68849 -1.406062,-0.68848 -2.887017,-0.25755 -2.887018,-0.25756 -2.2113521,0.14856 -2.211352,0.14855 -1.300795,0.39253 -1.300796,0.39252 -0.910557,0.56612 -0.910556,0.56612 0.73207,0.20044 0.73207,0.20043 0.373606,0.31007 0.373606,0.31006 v 0.46678 0.46679 l 0.311602,0.10386 0.311602,0.10387 -1.183345,0.81417 -1.183346,0.81416 -0.554511,-0.14501 -0.554511,-0.14501 -0.459899,0.85036 -0.459899,0.85035 -0.39322605,0.41753 -0.393226,0.41752 0.08448,0.43865 0.08448,0.43866 -0.285763,0.53395 -0.285762,0.53396 h -0.408924 -0.40892 l 0.162586,-0.4237 0.162587,-0.42369 -0.78514995,0.15703 -0.78515,0.15703 v -0.35188 -0.35188 l 0.325199,-0.26402 0.325199,-0.26402 0.49220295,-0.093 0.492204,-0.093 0.800683,-0.98997 0.80068305,-0.98997 -0.38233005,-0.2418 -0.38233,-0.2418 -0.696555,-0.004 -0.69655495,-0.004 -0.523181,0.66512 -0.523182,0.66512 -0.440681,1.35111 -0.440682,1.35112 -0.25699,0.32447 -0.25699,0.32448 -0.163864,2.01696 -0.163865,2.01695 0.178442,2.09198 0.178442,2.09198 0.575321,1.55025 0.575322,1.55025 0.738219,1.08179 0.73821895,1.0818 1.109608,1.09005 1.10960905,1.09005 1.170715,0.68918 1.170716,0.68918 2.081273,0.45233 2.081272,0.45232 3.6422271,-0.0894 3.642228,-0.0894 z m 122.611077,0.36027 1.04064,-0.3749 1.0726,-0.004 1.07261,-0.004 1.24035,-0.54867 1.24036,-0.54867 1.10468,-1.01826 1.10467,-1.01825 0.56483,-1.31297 0.56482,-1.31297 0.01,-1.24263 0.01,-1.24263 -0.65177,-1.28622 -0.65178,-1.28623 -1.14538,-1.05576 -1.14537,-1.05577 -1.17509,-0.68865 -1.17509,-0.68865 -1.54016,-0.53849 -1.54017,-0.53849 -3.77231,-1.00068 -3.7723,-1.00067 -1.4677,-0.55146 -1.4677,-0.55145 -0.15475,-0.57722 -0.15474,-0.57723 -0.004,-0.84551 -0.004,-0.84552 h -0.24861 -0.2486 l -0.96779,0.65676 -0.96778,0.65675 -0.27953,-0.28498 -0.27952,-0.28499 0.6504,-0.48844 0.65039,-0.48843 0.32967,-0.33862 0.32968,-0.33861 0.74493,-0.91055 0.74494,-0.91056 0.0983,-0.51328 0.0983,-0.51328 0.99303,-0.55702 0.99303,-0.55703 -0.43116,-0.16545 -0.43115,-0.16545 h -1.09836 -1.09836 l -1.36132,0.67837 -1.36132,0.67838 -0.90694,1.18778 -0.90694,1.18778 -0.40827,1.40442 -0.40828,1.40443 0.43729,1.34724 0.43729,1.34725 0.51156,0.83453 0.51156,0.83453 0.80136,0.6743 0.80136,0.6743 0.7655,-0.16814 0.76551,-0.16813 0.9241,0.17336 0.92411,0.17337 -0.22901,0.22199 -0.229,0.222 -0.78048,0.096 -0.78048,0.096 1.56096,0.73284 1.56095,0.73284 1.3008,0.38914 1.30079,0.38914 2.73167,0.6389 2.73167,0.6389 1.11277,0.53125 1.11278,0.53125 0.38314,0.74092 0.38314,0.74091 v 0.77344 0.77344 l -0.68139,0.80978 -0.68138,0.80978 -0.81453,0.4413 -0.81453,0.4413 -3.25199,-0.0101 -3.25199,-0.0101 -1.47276,-0.58063 -1.47276,-0.58064 -0.99213,-0.78844 -0.99212,-0.78844 -0.81692,0.15325 -0.81692,0.15326 -0.62058,-0.50355 -0.62058,-0.50355 0.72956,-0.18378 0.72956,-0.18377 0.89644,0.14547 0.89643,0.14547 v -0.35261 -0.3526 l -0.15791,-0.41152 -0.15792,-0.41151 h -2.29232 -2.29232 l -0.41151,0.15791 -0.41152,0.15791 v 1.23264 1.23264 l 0.54382,0.49215 0.54381,0.49215 0.33597,-0.45948 0.33598,-0.45947 0.14565,0.37957 0.14566,0.37957 1.12087,0.22167 1.12087,0.22166 v 0.38201 0.38201 l -0.6504,-0.0155 -0.6504,-0.0156 -0.58664,-0.19751 -0.58664,-0.19751 -0.16321,0.42533 -0.16321,0.42532 0.87756,0.90542 0.87757,0.90542 1.1104,0.65074 1.1104,0.65074 1.8838,0.49364 1.88379,0.49364 3.51215,0.003 3.51214,0.003 z m 113.98567,0.008 0.14975,-0.39023 h 1.48109 1.48109 l 0.31219,-0.31219 0.31219,-0.3122 v 0.3122 0.31219 l 0.71544,-0.004 0.71544,-0.004 0.58954,-0.15796 0.58954,-0.15797 -0.0692,-0.42384 -0.0692,-0.42384 1.37392,-0.24393 1.37392,-0.24393 -0.0718,-0.42355 -0.0718,-0.42355 0.97499,-0.85606 0.97499,-0.85605 0.42369,-1.45745 0.42369,-1.45745 -0.16999,-2.21151 -0.16999,-2.21152 -0.38699,-0.59063 -0.38699,-0.59062 -0.79552,-0.41138 -0.79552,-0.41138 -1.47842,-0.0493 -1.47843,-0.0493 -0.15591,2.60159 -0.15592,2.6016 -0.45939,1.10992 -0.45939,1.10993 -1.15395,1.01575 -1.15394,1.01574 -1.0925,0.17983 -1.0925,0.17982 -0.91055,0.36617 -0.91056,0.36616 -0.52032,0.61462 -0.52032,0.61462 -0.48235,-0.17728 -0.48235,-0.17727 0.68418,-0.81311 0.68419,-0.81311 -0.26338,-0.16278 -0.26338,-0.16278 -0.96756,0.26716 -0.96757,0.26716 -0.1416,-0.19422 -0.14161,-0.19422 -0.68263,-0.29938 -0.68264,-0.29938 -0.1731,-0.92272 -0.1731,-0.92272 -0.37299,-0.37298 -0.37299,-0.37299 0.23859,-4.9036 0.23859,-4.90359 0.17424,-4.56963 0.17424,-4.56962 -0.46221,-0.4622 -0.4622,-0.4622 -2.4942,0.14323 -2.49421,0.14323 -0.085,0.0106 -0.085,0.0106 0.0675,0.84552 0.0675,0.84551 -0.29021,0.91056 -0.29021,0.91056 -0.0906,4.35766 -0.0906,4.35767 0.78852,0.006 0.78852,0.006 -0.58996,0.45408 -0.58995,0.45408 0.0476,0.90597 0.0476,0.90597 -0.20671,3.13143 -0.20671,3.13144 0.55727,1.09234 0.55727,1.09235 0.60144,0.39408 0.60144,0.39408 1.67161,0.59477 1.6716,0.59478 0.25146,0.56347 0.25145,0.56347 1.17942,0.27829 1.17942,0.27829 1.56096,0.22274 1.56095,0.22273 0.7236,0.0317 0.7236,0.0317 z m 44.39488,-0.23962 1.24446,-0.43732 1.61729,-0.94779 1.61728,-0.9478 1.22484,-1.14559 1.22484,-1.1456 0.53123,-1.09738 0.53124,-1.09739 v -0.56158 -0.56157 l -0.71544,-0.36125 -0.71544,-0.36124 -1.91806,-0.42591 -1.91807,-0.42592 h -0.18936 -0.18936 l -0.81936,1.31808 -0.81937,1.31808 v 0.24611 0.2461 l -1.36583,0.86329 -1.36584,0.86328 -1.2165,0.33262 -1.21651,0.33262 -2.03548,-0.0954 -2.03548,-0.0954 -1.01616,-0.53114 -1.01615,-0.53114 -1.10684,-1.41807 -1.10684,-1.41808 -0.41356,-2.45231 -0.41356,-2.45232 v -2.16024 -2.16024 l 0.42795,-1.11095 0.42794,-1.11094 1.06797,-1.11725 1.06797,-1.11725 1.3008,-0.60688 1.30079,-0.60688 1.21007,-0.17411 1.21007,-0.17411 1.78176,0.30348 1.78176,0.30347 1.33224,0.62217 1.33223,0.62217 0.63264,1.23275 0.63265,1.23276 0.91893,0.0782 0.91894,0.0782 1.3534,-0.53346 1.35341,-0.53347 h 0.79905 0.79904 l -0.17632,-0.71543 -0.17632,-0.71544 -0.56579,-1.14051 -0.56579,-1.14051 -1.76279,-1.37929 -1.76279,-1.37929 -1.36985,-0.51253 -1.36984,-0.51252 -3.7638,-0.18643 -3.76381,-0.18642 -1.56026,0.30668 -1.56026,0.30669 -0.78047,0.2934 -0.78048,0.2934 -0.90591,0.60243 -0.90591,0.60243 h 0.59781 0.59782 l 0.50321,0.26932 0.50322,0.26931 v 0.49581 0.49581 l 0.26016,0.16079 0.26016,0.16078 -4.7e-4,0.17977 -4.7e-4,0.17977 -1.16342,0.735 -1.16343,0.73501 -0.2435,-0.15049 -0.24351,-0.1505 -0.3935,0.151 -0.3935,0.151 -0.40835,1.02056 -0.40835,1.02056 h -0.26226 -0.26227 v 0.72845 0.72844 l -0.31219,0.3122 -0.31219,0.31219 h -0.20813 -0.20812 v -0.41091 -0.41091 l -0.78048,0.17142 -0.78048,0.17142 v -0.38127 -0.38126 l 0.88273,-0.41889 0.88273,-0.41888 0.8436,-0.96081 0.8436,-0.96081 -0.49057,-0.19262 -0.49058,-0.19262 -0.70944,-0.0183 -0.70944,-0.0183 -0.39266,0.59928 -0.39266,0.59927 -0.52251,1.51872 -0.52252,1.51872 -0.28227,0.34012 -0.28227,0.34011 -0.14456,2.94019 -0.14457,2.94019 0.54183,2.14164 0.54183,2.14163 0.68774,1.17355 0.68775,1.17356 1.14643,1.2751 1.14642,1.2751 1.23641,0.78605 1.2364,0.78606 1.17072,0.31418 1.17071,0.31418 1.3008,0.21159 1.30079,0.2116 3.38207,-0.0798 3.38207,-0.0798 z m -72.78822,-0.0598 2.86175,-0.14078 0.21923,-0.20722 0.21922,-0.20723 -0.28905,-0.54009 -0.28904,-0.54008 -1.23098,-0.70486 -1.23097,-0.70486 -0.13008,-0.10546 -0.13008,-0.10546 v -0.74474 -0.74475 l -2.28628,-2.4765 -2.28628,-2.47651 -1.16083,-0.83364 -1.16082,-0.83364 v -0.15938 -0.15939 l 2.17533,-0.94122 2.17532,-0.94123 1.09896,-0.69374 1.09897,-0.69374 0.47855,-1.08834 0.47855,-1.08833 0.0416,-1.43088 0.0417,-1.43087 -0.0222,-0.1902 -0.0222,-0.1902 -1.62599,0.87578 -1.626,0.87579 -0.69949,0.16088 -0.69949,0.16089 -0.14316,-0.23164 -0.14316,-0.23163 0.32233,-0.2642 0.32234,-0.2642 1.05384,-0.28167 1.05385,-0.28167 0.57994,-0.7844 0.57993,-0.78441 h 0.41649 0.41649 l -0.15502,-0.95532 -0.15503,-0.95531 -0.98469,-1.01039 -0.98469,-1.0104 -1.62825,-0.80279 -1.62825,-0.80278 -4.87573,-0.24818 -4.87572,-0.24819 -2.99183,-0.0322 -2.99183,-0.0322 -1.48365,0.20432 -1.48366,0.20433 -0.56831,1.47872 -0.56832,1.47873 -0.12656,1.36583 -0.12656,1.36584 h 0.42246 0.42245 v 0.78048 0.78047 h -0.35476 -0.35476 v 1.04599 1.046 l -0.45638,0.50429 -0.45638,0.50429 0.18747,5.53906 0.18747,5.53905 0.53894,0.58535 0.53894,0.58536 h -0.41806 -0.41805 l -0.1607,0.5063 -0.16069,0.5063 0.0781,1.44399 0.0781,1.44398 1.48056,9.1e-4 1.48056,9.1e-4 0.16078,-0.26016 0.16079,-0.26016 -0.34055,-10e-4 -0.34055,-0.001 -0.98226,-0.27278 -0.98226,-0.27277 0.1521,-0.24609 0.15209,-0.2461 h 1.00993 1.00993 l 0.14792,-0.23935 0.14793,-0.23935 -0.79945,-0.62567 -0.79946,-0.62567 0.42057,-0.34904 0.42057,-0.34904 1.60429,0.29835 1.6043,0.29835 0.26338,-0.26338 0.26338,-0.26338 0.0985,-1.95092 0.0985,-1.95092 -0.30307,-1.20361 -0.30307,-1.2036 0.33927,-0.21924 0.33926,-0.21923 1.02673,-0.28389 1.02673,-0.28388 0.27406,0.37085 0.27407,0.37085 0.96231,0.15475 0.9623,0.15475 0.94525,0.44854 0.94524,0.44855 2.06007,1.97644 2.06007,1.97644 -1.9e-4,0.61523 -1.9e-4,0.61523 1.95119,2.00504 1.95119,2.00504 v 0.5962 0.59621 l 0.84552,-0.17392 0.84552,-0.17391 z m -17.34539,-15.6606 -1.47569,-0.17272 -0.17848,-0.17847 -0.17848,-0.17848 0.0512,-1.64118 0.0512,-1.64118 -0.0213,-0.59915 -0.0213,-0.59914 -0.25507,-0.47661 -0.25507,-0.4766 -0.7223,-0.18238 -0.7223,-0.18238 0.78048,-0.40568 0.78047,-0.40568 0.1753,-0.27065 0.17529,-0.27066 0.42323,0.35125 0.42323,0.35126 4.60466,0.18858 4.60466,0.18859 0.91055,0.28676 0.91056,0.28675 0.84552,0.51869 0.84551,0.51869 0.0288,0.71926 0.0288,0.71926 -0.0513,0.6504 -0.0513,0.6504 -0.66541,0.70375 -0.66542,0.70375 -1.19827,0.43525 -1.19828,0.43524 -3.25199,0.0729 -3.25199,0.0729 z m -36.1173,15.55124 v -0.27874 l -0.37165,-0.37165 -0.37166,-0.37166 h -0.29409 -0.2941 l 0.14968,0.24218 0.14968,0.24218 -0.26441,0.16341 -0.2644,0.16341 v 0.24481 0.24481 h 0.78048 0.78047 z m 157.13609,-0.0796 v -0.35838 l -0.39653,-0.32909 -0.39652,-0.32909 -0.0915,0.10212 -0.0915,0.10211 -0.17993,0.58536 -0.17993,0.58536 h 0.66793 0.66793 z m -152.29599,-0.35705 0.14091,-0.45528 0.24117,-0.45175 0.24117,-0.45175 v -1.38806 -1.38806 l -0.42273,-1.24064 -0.42273,-1.24065 -0.74706,-0.4543 -0.74705,-0.45431 0.15897,-0.15897 0.15896,-0.15896 0.6287,0.41194 0.6287,0.41193 0.17046,-0.17046 0.17047,-0.17047 -0.0699,-3.04961 -0.0699,-3.04961 -0.30377,-0.19724 -0.30378,-0.19724 0.53903,-0.1483 0.53903,-0.1483 0.0347,-3.64274 0.0348,-3.64274 0.16808,-0.52958 0.16808,-0.52958 4.78653,0.0948 4.78652,0.0948 v -1.44561 -1.44561 l 0.286,-0.286 0.28601,-0.28601 -0.16727,-0.52701 -0.16727,-0.52701 -1.61465,-0.16939 -1.61465,-0.16938 -3.25199,0.14567 -3.25199,0.14566 -1.13405,0.0144 -1.13406,0.0144 0.12238,0.64022 0.12239,0.64022 h -0.33663 -0.33663 l -0.16515,-0.52032 -0.16514,-0.52032 h -0.50278 -0.50279 v 0.37488 0.37489 l -0.27942,0.17269 -0.27942,0.17269 -0.58286,-0.54758 -0.58287,-0.54757 h -0.29928 -0.29928 l -0.24472,0.45726 -0.24472,0.45727 0.49573,0.61219 0.49572,0.6122 v 1.01181 1.01182 h 0.143 0.143 l 0.79174,-0.40943 0.79173,-0.40942 0.15953,0.15953 0.15954,0.15954 -0.48484,0.90028 -0.48483,0.90029 h -0.32365 -0.32365 l -0.74106,-0.90599 -0.74106,-0.90599 -1.71837,-1.77175 -1.71837,-1.77175 -0.43293,0.27127 -0.43292,0.27127 -0.81073,-0.4634 -0.81073,-0.46341 -0.15004,0.15004 -0.15003,0.15003 0.31535,0.50496 0.31535,0.50496 v 0.13361 0.13361 h -0.26016 -0.26016 l -1.0466,-1.0466 -1.0466,-1.0466 -0.49551,0.26519 -0.49551,0.26518 -0.40908,-0.15698 -0.40909,-0.15698 0.002,0.22296 0.002,0.22295 0.35246,0.67545 0.35246,0.67545 -0.4439,0.27722 -0.4439,0.27722 -0.0245,0.8628 -0.0245,0.8628 0.30949,0.19678 0.30948,0.19678 1.74072,0.004 1.74072,0.004 0.1512,-0.24465 0.15121,-0.24465 -0.58764,-0.54747 -0.58765,-0.54748 0.38676,-0.24453 0.38675,-0.24453 0.14924,-0.004 0.14923,-0.004 0.24101,0.9756 0.241,0.9756 0.59968,0.085 0.59967,0.085 0.40407,-0.33535 0.40408,-0.33535 0.31386,0.42923 0.31386,0.42924 1.25082,0.0813 1.25081,0.0813 -0.0578,5.20318 -0.0578,5.20318 -0.12478,3.1348 -0.12477,3.13481 0.91352,0.0259 0.91352,0.0259 0.27779,0.17168 0.27779,0.17168 v 0.27806 0.27806 l -1.0133,-0.16204 -1.0133,-0.16203 -0.15741,0.41022 -0.15742,0.41022 v 1.35143 1.35143 l 1.04064,-0.0992 1.04063,-0.0992 v 0.19377 0.19376 l -0.45528,0.3496 -0.45527,0.34961 0.58535,0.1647 0.58536,0.16469 v 0.3599 0.3599 h 1.95936 1.95936 z m 157.44691,-0.40871 0.31242,-0.86399 v -1.74596 -1.74596 l -0.35872,-0.85852 -0.35871,-0.85852 -0.68192,-0.5364 -0.68193,-0.5364 v -0.17243 -0.17243 l 0.57821,0.40499 0.5782,0.40499 h 0.33236 0.33235 v -3.10898 -3.10898 l -0.43262,-0.24211 -0.43262,-0.2421 0.5627,-0.17859 0.5627,-0.1786 0.0584,-2.12878 0.0584,-2.12878 -0.0686,-1.49408 -0.0686,-1.49408 0.29445,-0.5502 0.29446,-0.5502 4.81461,0.0953 4.81461,0.0953 -0.13802,-1.02901 -0.13801,-1.02901 0.32072,-0.79434 0.32073,-0.79434 -0.0908,-0.42051 -0.0908,-0.42051 -1.35345,-0.16259 -1.35346,-0.16259 -3.43175,-0.002 -3.43176,-0.002 -0.16994,0.27497 -0.16994,0.27497 -1.08117,-0.0798 -1.08117,-0.0798 0.0814,0.58536 0.0814,0.58536 h -0.26736 -0.26736 l -0.27846,-0.52032 -0.27847,-0.52032 h -0.31851 -0.3185 l -0.34314,0.54945 -0.34313,0.54945 -0.71489,-0.68491 -0.71489,-0.68491 -0.43543,0.48115 -0.43543,0.48114 v 0.19321 0.19322 l 0.37476,0.37477 0.37477,0.37476 0.17509,1.16761 0.17509,1.16761 h 0.21527 0.21527 l 0.16078,-0.26016 0.16079,-0.26016 h 0.50496 0.50497 l -0.006,0.3252 -0.006,0.3252 -0.47727,0.62069 -0.47727,0.6207 -0.81512,-0.60265 -0.81513,-0.60265 -0.13616,-0.42901 -0.13617,-0.42902 -1.63903,-1.56733 -1.63903,-1.56733 -0.77877,0.1143 -0.77877,0.1143 -0.34226,-0.4124 -0.34225,-0.41239 h -0.35839 -0.35838 v 0.20227 0.20227 l 0.40499,0.57821 0.40499,0.57821 h -0.38613 -0.38614 l -0.60421,-0.74818 -0.60421,-0.74818 -0.53434,-0.27431 -0.53434,-0.2743 -0.35263,0.21793 -0.35262,0.21794 -0.32248,-0.12374 -0.32248,-0.12375 -0.17174,0.27789 -0.17175,0.2779 h 0.24518 0.24519 l 0.1261,0.65967 0.12611,0.65968 -0.42098,0.31592 -0.42097,0.31592 -0.0728,0.70213 -0.0728,0.70213 0.51098,0.27347 0.51098,0.27347 h 1.5627 1.5627 l 0.17092,-0.27656 0.17092,-0.27655 -0.44121,-0.48753 -0.44121,-0.48753 0.17092,-0.27655 0.17092,-0.27656 h 0.37488 0.37489 v 0.62912 0.62912 l 0.15791,0.41152 0.15792,0.41152 h 0.49601 0.49602 l 0.53122,-0.3252 0.53122,-0.3252 0.25865,0.45528 0.25865,0.45528 h 1.10576 1.10576 l 0.27109,0.27109 0.27109,0.27109 -0.24385,1.48498 -0.24385,1.48498 0.1477,3.51215 0.14771,3.51215 -0.23496,1.17071 -0.23496,1.17072 0.1461,1.95119 0.1461,1.9512 0.76582,0.0287 0.76581,0.0287 0.43589,0.45574 0.43588,0.45574 -1.20109,-0.16996 -1.20108,-0.16997 -0.16475,0.82374 -0.16475,0.82374 v 0.87804 0.87803 h 1.04064 1.04063 v 0.20813 0.20813 l -0.32071,0.32071 -0.32071,0.32071 0.59559,0.15575 0.59558,0.15575 -0.13663,0.35605 -0.13663,0.35605 h 2.02085 2.02084 z m -89.1823,-0.29138 v -0.11472 l -0.26016,-0.16079 -0.26016,-0.16079 v 0.27552 0.27551 h 0.26016 0.26016 z m -39.28403,-1.04063 v -0.11473 l -0.26015,-0.16079 -0.26016,-0.16078 v 0.27551 0.27551 h 0.26016 0.26015 z m -1.17071,-1.18607 -0.16079,-0.26016 h -0.2448 -0.24481 v 0.26016 0.26016 h 0.40559 0.4056 z m 61.0073,-10.14621 v -0.26016 h -0.39024 -0.39024 v 0.26016 0.26016 h 0.39024 0.39024 z m -0.30909,-0.94396 0.23709,-0.42365 0.18143,0.29357 0.18144,0.29357 h 0.2448 0.24481 v -0.39024 -0.39024 h -0.35598 -0.35599 l -0.18175,-1.10568 -0.18175,-1.10567 10e-4,-0.45528 10e-4,-0.45528 h -0.22541 -0.22541 l -0.40882,-0.40882 -0.40882,-0.40882 v -0.18454 -0.18454 l 0.78503,-0.29632 0.78502,-0.29631 0.41523,-0.99378 0.41523,-0.99378 -0.18648,-1.69373 -0.18648,-1.69374 -0.0382,-0.65039 -0.0382,-0.6504 -1.95119,-0.0813 -1.9512,-0.0812 -1.13031,0.16592 -1.13031,0.16593 0.16206,1.21612 0.16206,1.21612 0.027,0.6504 0.027,0.6504 -0.44608,1.17071 -0.44608,1.17072 0.12732,2.86175 0.12732,2.86175 1.96608,0.14242 1.96609,0.14242 0.18278,0.18278 0.18278,0.18277 h 0.59411 0.59411 z m -156.22397,-3.33845 0.38003,-0.38003 0.18597,-2.59838 0.18598,-2.59837 -0.18273,-1.57438 -0.18272,-1.57438 h -2.44596 -2.44597 v 0.56432 0.56432 l -0.78048,1.38293 -0.78048,1.38293 v 0.27054 0.27054 l 0.67838,0.25792 0.67837,0.25791 -0.11642,0.84132 -0.11643,0.84133 -0.10667,0.39023 -0.10667,0.39024 0.52315,-0.0709 0.52315,-0.0709 1.42805,0.90972 1.42804,0.90971 0.43669,0.007 0.43669,0.007 z m 34.70816,-1.59827 -0.15718,-0.15718 -0.34146,0.13664 -0.34146,0.13665 0.49864,0.0205 0.49863,0.0205 z m 3.53149,-0.70394 -0.0511,-0.73103 -0.41009,-1.41066 -0.41009,-1.41067 -0.52743,-0.49137 -0.52743,-0.49138 -2.22872,-0.92942 -2.22871,-0.92943 -0.75713,0.55978 -0.75713,0.55977 0.13807,0.3598 0.13806,0.35981 -2.66756,-0.13718 -2.66756,-0.13717 -0.96263,-0.17364 -0.96263,-0.17364 -0.79344,0.56498 -0.79345,0.56498 v 0.196 0.19599 l 3.96743,0.33261 3.96742,0.33261 0.48268,0.25797 0.48267,0.25797 0.9482,-0.16279 0.9482,-0.16279 0.71544,-0.14185 0.71544,-0.14186 v 0.51919 0.51918 l -0.78048,0.34547 -0.78048,0.34548 v 0.3092 0.3092 l 0.50122,0.15908 0.50123,0.15908 0.95729,-0.39998 0.95729,-0.39999 0.23252,0.14371 0.23252,0.14371 v 0.72176 0.72176 l 0.18568,0.18569 0.18568,0.18568 1.05008,-0.0773 1.05007,-0.0773 z m 105.28546,-0.17951 v -0.26016 h -0.39024 -0.39024 v 0.26016 0.26016 h 0.39024 0.39024 z m -249.7694351,-2.06543 0.373509,-0.23635 -0.340325,-0.41007 -0.340325,-0.41006 H 1.2613419 0.51271985 v 0.37731 0.37731 l 0.455278,0.26518 0.45527905,0.26517 0.260159,0.004 0.260159,0.004 z M 130.33209,602.01073 v -0.2184 h -0.48846 -0.48846 l -0.28976,0.34913 -0.28976,0.34914 0.15378,0.15378 0.15378,0.15378 0.62444,-0.28452 0.62444,-0.28451 z m 153.49386,0.55315 0.39023,-0.26112 -0.505,-0.3853 -0.505,-0.38529 h -0.58532 -0.58532 l -0.14979,0.24236 -0.14978,0.24235 0.58256,0.40804 0.58255,0.40804 0.26732,-0.004 0.26731,-0.004 z m -146.02879,-3.48109 0.72994,-0.62827 -0.15032,-0.15077 -0.15032,-0.15077 -2.49862,-0.1081 -2.49862,-0.10809 -0.47297,0.35854 -0.47297,0.35854 0.6504,0.008 0.6504,0.008 1.30079,0.50794 1.3008,0.50794 0.44077,0.0122 0.44077,0.0122 z m 138.05942,-14.13577 -4.83842,-9.56084 -4.16775,-8.19501 -4.16775,-8.19502 -0.58327,-1.04063 -0.58328,-1.04064 -0.98085,-1.82111 -0.98086,-1.82112 -1.29037,-2.34143 -1.29037,-2.34143 -1.32181,-2.21135 -1.32181,-2.21135 -1.81512,-2.99183 -1.81511,-2.99183 -3.22835,-4.89357 -3.22835,-4.89356 -0.32764,-0.12573 -0.32765,-0.12573 -2.83997,1.01459 -2.83998,1.01458 -2.21135,1.10778 -2.21136,1.10779 -1.82111,1.19841 -1.82111,1.19842 -1.17072,0.88009 -1.17071,0.88009 -2.99183,2.54958 -2.99183,2.54958 -3.64968,3.73218 -3.64968,3.73218 -3.12208,3.51215 -3.12208,3.51214 -2.36647,2.73849 -2.36646,2.73848 -2.52342,2.39234 -2.52341,2.39235 -2.43621,1.89347 -2.43621,1.89347 -1.62078,2.81655 -1.62077,2.81655 -0.99879,2.48195 -0.99879,2.48195 -0.49734,1.98595 -0.49734,1.98596 -0.2698,1.82111 -0.26979,1.82111 -0.17941,3.05687 -0.17941,3.05687 h 47.25253 47.25253 z m -383.07628,-23.81327 -0.88399,-0.59408 -0.83987,-1.4012 -0.83988,-1.4012 -0.39588,-1.36179 -0.39588,-1.36179 v -0.41524 -0.41524 h 1.67879 1.67879 l 0.64969,0.29602 0.64969,0.29602 0.27311,0.78344 0.27311,0.78344 v 2.69285 2.69285 h -0.48185 -0.48184 z m 0.31455,-24.51222 -1.14289,-0.35638 -0.93838,-0.90144 -0.93838,-0.90144 -1.64002,-1.04921 -1.64002,-1.0492 -0.30254,-0.10085 -0.30253,-0.10084 0.84049,-0.89176 0.84049,-0.89176 0.53991,-1.10567 0.53991,-1.10568 h 0.27129 0.27128 l 0.87623,0.54154 0.87622,0.54153 v 0.29414 0.29413 l -1.0876,1.10818 -1.0876,1.10819 0.47158,0.52109 0.47159,0.5211 1.07129,0.50759 1.0713,0.50759 1.99824,0.17825 1.99825,0.17825 0.16932,1.00221 0.16932,1.00221 -0.16669,0.2697 -0.16668,0.26971 -0.96025,-0.0174 -0.96024,-0.0174 z m 28.13143,-0.63423 -1.368796,-0.21927 -2.112233,-0.73529 -2.112233,-0.73529 -0.603841,-0.91876 -0.603841,-0.91876 -0.283726,-1.3008 -0.283727,-1.30079 -0.565402,-1.77101 -0.565402,-1.771 -1.018677,-1.00859 -1.018677,-1.0086 -1.015971,-0.17165 -1.015972,-0.17164 -1.551565,0.18008 -1.55156,0.18007 v -0.30651 -0.30652 l 1.49835,-1.4751 1.498341,-1.4751 0.908126,-0.44757 0.908126,-0.44758 4.292625,-2.0281 4.292624,-2.02811 1.499113,-0.99885 1.499113,-0.99885 0.907359,-1.06004 0.907358,-1.06005 v -0.86656 -0.86657 l -0.52854,-1.10284 -0.528539,-1.10284 -0.34364,-0.45252 -0.343639,-0.45251 -0.940579,-0.393 -0.940578,-0.393 h -1.227013 -1.227012 l -1.187815,0.57003 -1.187815,0.57004 -4.559889,4.48985 -4.559886,4.48985 -1.16361,0.52782 -1.16361,0.52782 -1.64135,0.006 -1.64135,0.006 0.14298,-0.23134 0.14297,-0.23134 0.7179,-0.17908 0.71789,-0.17909 1.36208,-1.04919 1.36208,-1.04919 0.95328,-1.32689 0.95327,-1.3269 0.481358,-1.36954 0.481354,-1.36953 v -1.66123 -1.66123 l -0.680502,-1.0119 -0.68051,-1.0119 -0.86029,-0.71776 -0.86029,-0.71776 -0.16696,-0.76018 -0.16696,-0.76018 -0.37668,-0.31261 -0.37667,-0.31262 -3.03269,-0.13383 -3.032687,-0.13383 -1.0005,1.1389 -1.0005,1.1389 0.97173,0.33642 0.97173,0.33642 0.72319,0.69286 0.72318,0.69285 v 0.78075 0.78074 l -0.57942,0.84562 -0.57942,0.84561 -1.11402,0.28051 -1.11402,0.28052 -0.71303,-0.17095 -0.71303,-0.17094 -0.74519,-0.37579 -0.74519,-0.3758 -1.07592,-0.97937 -1.07593,-0.97938 -1.37353,-0.93496 -1.37353,-0.93497 -1.16302,-0.1744 -1.16302,-0.17441 0.007,-0.29566 0.007,-0.29566 0.51554,-2.21135 0.51554,-2.21135 0.87989,-4.55279 0.8799,-4.55278 0.17125,-1.56096 0.17125,-1.56095 -0.26751,-2.86175 -0.26752,-2.86175 -0.5223,-2.08127 -0.5223,-2.08128 -0.003,-0.16514 -0.003,-0.16514 1.37178,-0.17139 1.37178,-0.1714 1.10442,-0.87396 1.10442,-0.87396 1.15882,-1.52117 1.15883,-1.52118 0.30938,-0.39023 0.30939,-0.39024 0.7488,-0.80354 0.7488,-0.80354 -0.63907,-1.27773 -0.63907,-1.27774 -0.39677,-1.56095 -0.39678,-1.56096 -0.1731,-1.57542 -0.1731,-1.57543 0.30015,-1.93453 0.30015,-1.93453 0.61268,-1.04283 0.61269,-1.04282 1.27903,-1.20869 1.27904,-1.20869 1.4132,-0.89839 1.413197,-0.89838 1.82111,-0.7021 1.82111,-0.7021 1.02919,-0.44145 1.02918,-0.44145 1.36323,-1.33094 1.363231,-1.33094 0.173002,-0.6893 0.173002,-0.68929 -0.664578,-0.87131 -0.664578,-0.87131 -0.949049,-0.45035 -0.94905,-0.45036 -1.21195,0.1211 -1.21195,0.1211 -3.11388,0.35079 -3.113877,0.35079 -1.69906,1.65697 -1.69906,1.65698 -1.56096,0.73564 -1.56095,0.73563 -1.58534,0.17166 -1.58535,0.17166 -0.65915,-0.78336 -0.65916,-0.78336 -0.58681,-1.21219 -0.58681,-1.2122 0.15462,-1.47932 0.15462,-1.47932 1.0189,-2.98489 1.01891,-2.98488 0.31529,-1.35498 0.31529,-1.35497 0.0169,-1.11671 0.0169,-1.11671 -0.45818,-0.91039 -0.45818,-0.91038 -1.30193,-1.33819 -1.30193,-1.33819 0.53715,-2.5642 0.53716,-2.56419 0.39063,-2.73167 0.39063,-2.73168 0.29672,-3.25198 0.29672,-3.25199 0.2232,-13.91851 0.22321,-13.91852 0.17478,-0.91055 0.17478,-0.91056 0.23164,-0.29183 0.23164,-0.29184 0.84135,-0.1588 0.84135,-0.15879 1.87862,-0.38043 1.87862,-0.38044 2.80424,-0.17133 2.804247,-0.17132 3.03446,0.28853 3.03446,0.28853 2.819117,0.50819 2.81912,0.5082 2.86175,0.53322 2.86175,0.53322 3.461377,0.51796 3.461377,0.51796 h 1.594106 1.594105 l 2.302276,-0.29525 2.302275,-0.29526 0.106008,0.10601 0.106008,0.10601 0.405833,1.94532 0.405833,1.94532 2.13e-4,0.56125 2.13e-4,0.56125 -1.328932,1.19483 -1.328933,1.19482 h -0.228758 -0.228759 l -0.641319,-1.01592 -0.641319,-1.01591 -0.857859,-0.81988 -0.857859,-0.81988 -0.719001,-0.38408 -0.719,-0.38408 -1.19429,-0.22312 -1.194289,-0.22312 -1.598858,0.34122 -1.598857,0.34121 -0.910557,0.44713 -0.910557,0.44713 -2.116785,1.28145 -2.116785,1.28146 -1.525442,0.61117 -1.525442,0.61118 -0.566338,1.64817 -0.566339,1.64818 -0.01902,1.26065 -0.01902,1.26066 0.431112,0.72981 0.431111,0.72981 1.97536,0.592 1.97536,0.59201 3.772307,-0.0358 3.772306,-0.0358 5.03563,-0.22045 5.03563,-0.22045 1.690139,0.20348 1.690139,0.20347 1.351034,0.61852 1.351034,0.61853 0.93303,0.81921 0.93303,0.81921 h 0.188377 0.188376 l 1.007929,-0.79829 1.00793,-0.7983 0.298686,-0.99693 0.298687,-0.99692 -0.184441,-1.22994 -0.18444,-1.22993 -1.230001,-1.23 -1.23,-1.23 -1.35267,-0.44929 -1.352669,-0.44928 0.147451,-0.23858 0.147451,-0.23859 0.309845,0.002 0.309845,0.002 3.772307,-1.19794 3.772306,-1.19794 3.512148,-1.14708 3.512147,-1.14708 1.884724,-0.95011 1.884723,-0.95011 1.520336,-1.49694 1.520336,-1.49694 0.627407,-1.44059 0.627406,-1.4406 0.520318,-0.0778 0.520318,-0.0778 49.223534,0.0664 49.223534,0.0664 0.416467,0.87764 0.416467,0.87764 0.570701,0.50376 0.5707,0.50376 1.040636,0.41427 1.040637,0.41427 2.081273,0.44363 2.08127,0.44362 1.82112,0.53426 1.82111,0.53427 0.91056,0.50246 0.91055,0.50246 0.58536,0.5403 0.58536,0.5403 v 0.76085 0.76085 l -0.42508,0.89578 -0.42508,0.89579 -1.78408,1.91037 -1.78407,1.91038 -1.13779,0.17062 -1.13778,0.17062 -0.47613,0.34815 -0.47612,0.34815 0.29794,1.65741 0.29794,1.65741 0.18,1.65555 0.18001,1.65554 1.56434,1.01109 1.56434,1.01108 h 0.77238 0.77239 l 1.0305,-1.17072 1.03051,-1.17071 h 0.20615 0.20615 l 0.16703,6.69909 0.16704,6.6991 0.1521,2.01623 0.1521,2.01624 -2.82379,8.6e-4 -2.82379,8.6e-4 -7.674688,0.39121 -7.674693,0.39121 -5.853579,0.39836 -5.853579,0.39836 -10.016125,0.90637 -10.016124,0.90637 -7.934852,0.77176 -7.9348511,0.77175 -2.471512,0.25766 -2.471511,0.25765 -4.812943,0.39858 -4.812943,0.39858 -2.991829,0.25583 -2.9918299,0.25584 -5.983658,0.38234 -5.983659,0.38234 -4.292625,0.1549 -4.292625,0.1549 -1.821113,0.0997 -1.821114,0.0997 -10.053027,0.0149 -10.053027,0.0149 -1.341886,1.20647 -1.341886,1.20647 -0.470783,0.93985 -0.470784,0.93984 -0.190788,1.17071 -0.190787,1.17072 -0.184189,5.46923 -0.184189,5.46923 -0.587362,1.21333 -0.587363,1.21332 -0.989805,0.89423 -0.989804,0.89423 -0.452552,0.25326 -0.452551,0.25326 1.044263,3.22672 1.044263,3.22671 0.526609,2.47151 0.52661,2.47152 0.435969,2.86175 0.435968,2.86175 0.003,6.50397 0.003,6.50398 -0.566789,3.7723 -0.566789,3.77231 -0.786315,3.21868 -0.786315,3.21868 0.215418,0.19109 0.215419,0.19109 3.512147,0.69712 3.512148,0.69711 3.642227,0.78218 3.642227,0.78217 4.292624,0.89301 4.292625,0.89302 2.341432,0.5179 2.341432,0.51791 1.691034,0.31101 1.691034,0.31102 0.18192,0.15314 0.181921,0.15314 0.114026,1.0356 0.114026,1.0356 -0.225709,0.59366 -0.225709,0.59366 -2.073388,2.20119 -2.073388,2.20119 -0.171795,0.91575 -0.171794,0.91574 0.163545,0.65162 0.163544,0.65161 0.998403,0.66071 0.998403,0.66071 2.053634,-1.0242 2.053633,-1.0242 2.86175,-0.80146 2.86175,-0.80147 2.211352,-0.5261 2.211352,-0.52611 1.943455,-0.95257 1.943454,-0.95257 0.965439,-0.89326 0.965439,-0.89325 0.684902,-0.98832 0.684902,-0.98831 0.698829,-0.12212 0.69883,-0.12212 3.1219079,-0.6991 3.121909,-0.69911 4.032466,-0.64341 4.032466,-0.64341 1.951193,-0.25955 1.951193,-0.25956 4.2926251,-0.39077 4.292625,-0.39078 7.674692,-0.16195 7.674693,-0.16196 5.983658,0.31446 5.983659,0.31447 3.642227,0.38685 3.642227,0.38685 4.292625,0.65811 4.292625,0.65811 0.585174,0.0449 0.585174,0.0449 1.84e-4,0.24306 1.84e-4,0.24306 -0.553762,1.14392 -0.553763,1.14392 0.170124,1.86501 0.170123,1.86501 0.157266,1.8795 0.157265,1.8795 -0.674615,1.37886 -0.674615,1.37887 0.244277,8.05855 0.244277,8.05856 0.04766,1.63668 0.04766,1.63668 -0.236466,0.21502 -0.236465,0.21502 -2.86175,1.50482 -2.86175,1.50482 -3.961884,2.17186 -3.961884,2.17186 H 28.138232 12.045936 l -30.062938,-0.1729 -30.062937,-0.1729 -0.297338,-2.36365 -0.297338,-2.36365 -0.684945,-1.82111 -0.684945,-1.82112 -0.569336,-0.91055 -0.569335,-0.91056 -0.797494,-1.82111 -0.797494,-1.82112 -0.411102,-2.17505 -0.411102,-2.17505 v -0.7239 -0.72391 l 0.411516,-0.15791 0.411517,-0.15792 h 0.392648 0.392649 l 1.537267,-1.07833 1.537266,-1.07833 -0.0067,-0.15742 -0.0067,-0.15743 -1.229048,-0.82839 -1.229047,-0.82838 -1.430875,-0.51891 -1.430875,-0.5189 -1.870948,-0.27871 -1.870947,-0.2787 h -1.807681 -1.807681 l -2.43511,0.50631 -2.435109,0.50631 -1.534851,0.53371 -1.534851,0.53371 -1.67387,0.93609 -1.673871,0.93608 -1.018864,1.57638 -1.018863,1.57638 v 0.4587 0.45871 l -0.157914,0.41152 -0.157914,0.41151 h 2.12279 2.12279 l 1.87247,0.42011 1.87247,0.42011 1.430875,0.66581 1.430875,0.66581 1.704944,1.71079 1.704944,1.71079 2.414024,4.81295 2.414024,4.81294 0.520074,0.84552 0.520074,0.84552 h -0.398651 -0.398652 l -1.26283,-0.27083 -1.262829,-0.27083 -4.538515,0.40449 -4.538516,0.40449 -4.943022,0.11367 -4.943022,0.11367 z"
       id="path1" /></g></svg>
